{"glyphs":{"0":{"ha":474,"x_min":0,"x_max":0,"o":"m 444 203 b 251 -12 444 79 378 -12 l 217 -12 b 29 203 94 -12 29 60 l 29 806 b 225 1043 29 956 82 1043 l 254 1043 b 444 808 401 1043 444 947 m 285 814 b 236 890 285 868 274 890 b 189 814 199 890 189 865 l 189 214 b 235 144 189 176 194 144 b 285 214 275 144 285 174 "},"1":{"ha":311,"x_min":0,"x_max":0,"o":"m 11 792 l 11 919 b 149 1033 104 925 133 951 l 275 1033 l 275 0 l 117 0 l 117 792 "},"2":{"ha":458,"x_min":0,"x_max":0,"o":"m 226 893 b 188 839 197 893 188 878 l 188 663 l 38 663 l 38 851 b 208 1043 38 950 78 1043 l 240 1043 b 432 851 357 1043 432 990 l 432 800 b 340 501 432 678 426 632 b 240 360 313 458 272 404 b 142 147 147 226 142 190 l 281 147 l 281 346 l 439 346 l 439 0 l 11 0 l 11 78 b 132 454 11 213 32 281 l 222 614 b 267 772 267 692 267 721 l 267 839 b 226 893 267 878 253 893 "},"3":{"ha":454,"x_min":0,"x_max":0,"o":"m 33 722 l 33 853 b 196 1043 33 935 68 1043 l 235 1043 b 419 850 364 1043 419 965 l 419 732 b 354 569 419 625 392 588 b 429 446 403 551 429 522 l 429 192 b 247 -12 429 65 358 -12 l 204 -12 b 22 165 71 -12 22 67 l 22 375 l 178 375 l 178 206 b 224 144 178 165 193 144 b 267 206 253 144 267 165 l 267 421 b 225 474 267 458 263 474 l 140 474 l 140 635 l 214 635 b 258 693 253 635 258 647 l 258 838 b 218 894 258 881 247 894 b 179 839 190 894 179 882 l 179 722 "},"4":{"ha":481,"x_min":0,"x_max":0,"o":"m 224 667 b 129 392 196 576 164 485 l 224 392 m 10 379 b 242 1038 68 533 193 886 l 378 1038 l 378 392 l 474 392 l 474 250 l 378 250 l 378 0 l 224 0 l 224 250 l 10 250 "},"5":{"ha":457,"x_min":0,"x_max":0,"o":"m 36 463 l 36 1033 l 422 1033 l 422 878 l 190 878 l 190 646 b 317 747 217 700 260 747 l 322 747 b 432 625 404 747 432 686 l 432 182 b 243 -12 432 85 379 -12 l 214 -12 b 22 165 54 -12 22 92 l 22 378 l 183 378 l 183 196 b 225 136 183 161 192 136 b 264 196 254 136 264 163 l 264 525 b 228 586 264 554 263 586 b 190 525 193 586 190 554 l 190 463 "},"6":{"ha":467,"x_min":0,"x_max":0,"o":"m 236 136 b 282 201 267 136 282 158 l 282 453 b 236 517 282 496 267 517 b 190 456 206 517 190 496 l 190 201 b 236 136 190 158 206 136 m 329 660 b 443 538 415 660 443 589 l 443 194 b 251 -12 443 83 390 -12 l 222 -12 b 29 188 83 -12 29 81 l 29 840 b 213 1043 29 967 79 1043 l 240 1043 b 424 881 369 1043 424 975 l 424 728 l 264 728 l 264 846 b 226 896 264 869 258 896 b 189 846 194 896 189 869 l 189 567 b 324 660 215 607 260 660 "},"7":{"ha":425,"x_min":0,"x_max":0,"o":"m 410 1033 l 410 882 l 353 553 b 307 117 319 353 307 185 l 307 0 l 117 0 l 117 101 b 192 482 117 175 128 278 b 289 892 281 785 289 850 l 169 892 l 169 728 l 21 728 l 21 1033 "},"8":{"ha":457,"x_min":0,"x_max":0,"o":"m 271 410 b 228 469 271 449 260 469 b 186 410 196 469 186 453 l 186 190 b 229 139 186 161 197 139 b 271 190 258 139 271 161 m 268 847 b 228 904 268 876 265 904 b 189 847 190 904 189 876 l 189 682 b 229 629 189 653 200 629 b 268 681 256 629 268 649 m 424 706 b 357 572 424 632 389 593 b 435 428 406 544 435 506 l 435 179 b 242 -12 435 75 379 -12 l 213 -12 b 22 182 75 -12 22 75 l 22 428 b 94 572 22 506 63 550 b 32 706 65 596 32 632 l 32 867 b 211 1043 32 950 72 1043 l 239 1043 b 424 861 368 1043 424 967 "},"9":{"ha":467,"x_min":0,"x_max":0,"o":"m 140 371 b 24 515 65 371 24 449 l 24 849 b 215 1043 24 956 72 1043 l 247 1043 b 438 849 392 1043 438 958 l 438 168 b 257 -12 438 63 381 -12 l 222 -12 b 42 167 88 -12 42 61 l 42 303 l 204 303 l 204 186 b 243 133 204 160 210 133 b 278 186 272 133 278 160 l 278 463 b 144 371 256 429 208 371 m 231 894 b 185 831 190 894 185 860 l 185 579 b 231 514 185 536 200 514 b 278 576 265 514 278 538 l 278 831 b 231 894 278 864 271 894 "},"\u0000":{"ha":0,"x_min":0,"x_max":0,"o":""},"\r":{"ha":142,"x_min":0,"x_max":0,"o":""}," ":{"ha":142,"x_min":0,"x_max":0,"o":""},"!":{"ha":211,"x_min":0,"x_max":0,"o":"m 176 0 l 32 0 l 32 178 l 176 178 m 192 1033 l 131 213 l 79 213 l 19 1033 "},"\"":{"ha":306,"x_min":0,"x_max":0,"o":"m 138 790 l 24 790 l 24 1033 l 138 1033 m 282 790 l 168 790 l 168 1033 l 282 1033 "},"#":{"ha":508,"x_min":0,"x_max":0,"o":"m 271 1033 l 243 732 l 299 732 l 326 1033 l 442 1033 l 414 732 l 504 732 l 493 618 l 403 618 l 390 472 l 479 472 l 467 356 l 379 356 l 347 0 l 232 0 l 264 356 l 208 356 l 176 0 l 63 0 l 94 356 l 4 356 l 17 472 l 104 472 l 118 618 l 29 618 l 42 732 l 128 732 l 156 1033 m 219 472 l 275 472 l 288 618 l 232 618 "},"$":{"ha":465,"x_min":0,"x_max":0,"o":"m 206 -11 b 21 185 83 -7 21 63 l 21 383 l 168 383 l 168 203 b 206 132 168 160 178 139 l 206 443 l 114 553 b 22 814 43 635 22 706 l 22 842 b 206 1043 22 968 89 1039 l 206 1128 l 254 1128 l 254 1043 b 425 864 375 1039 425 986 l 425 701 l 289 701 l 289 849 b 254 908 289 881 281 901 l 254 632 l 353 515 b 446 261 431 426 446 367 l 446 229 b 254 -11 446 85 378 -7 l 254 -104 l 206 -104 m 292 249 b 254 385 292 311 286 340 l 254 132 b 292 218 279 142 292 169 m 171 811 b 206 692 171 757 179 726 l 206 908 b 171 836 178 901 171 879 "},"%":{"ha":646,"x_min":0,"x_max":0,"o":"m 19 906 b 147 1040 19 993 69 1040 l 174 1040 b 299 906 251 1040 299 990 l 299 706 b 174 571 299 624 253 571 l 147 571 b 19 706 74 571 19 617 m 349 329 b 476 464 349 417 399 464 l 501 464 b 626 329 579 464 626 414 l 626 129 b 503 -6 626 47 582 -6 l 476 -6 b 349 129 403 -6 349 40 m 563 1033 l 190 0 l 88 0 l 460 1033 m 186 904 b 157 936 186 922 178 936 b 132 904 140 936 132 922 l 132 708 b 157 676 132 690 140 676 b 186 708 178 676 186 690 m 486 100 b 514 132 507 100 514 115 l 514 328 b 486 360 514 346 507 360 b 461 328 468 360 461 346 l 461 132 b 486 100 461 115 468 100 "},"&":{"ha":590,"x_min":0,"x_max":0,"o":"m 18 321 b 142 589 18 454 82 538 b 79 832 104 672 79 744 l 79 868 b 246 1043 79 961 126 1043 l 274 1043 b 431 861 406 1043 431 961 l 431 846 b 300 583 431 749 411 688 l 422 303 b 432 621 435 403 432 522 l 569 621 b 506 153 565 428 557 281 b 588 114 535 124 561 118 l 547 -25 b 422 33 508 -18 465 -10 b 294 -12 396 7 356 -12 l 269 -12 b 18 269 107 -12 18 92 m 296 121 b 351 138 317 121 336 126 l 349 146 l 193 478 b 169 347 181 449 169 404 l 169 326 b 296 121 169 178 224 121 m 217 839 b 256 683 217 785 229 746 b 299 838 293 739 299 775 l 299 860 b 258 921 299 900 290 921 b 217 858 231 921 217 900 "},"'":{"ha":164,"x_min":0,"x_max":0,"o":"m 140 790 l 24 790 l 24 1033 l 140 1033 "},"(":{"ha":288,"x_min":0,"x_max":0,"o":"m 43 478 b 192 1122 43 768 114 975 l 285 1122 b 188 482 231 974 188 749 b 289 -182 188 211 238 -19 l 196 -182 b 43 478 125 -44 43 178 "},")":{"ha":288,"x_min":0,"x_max":0,"o":"m 100 482 b 3 1122 100 749 57 974 l 96 1122 b 244 478 174 975 244 768 b 92 -182 244 178 163 -44 l -1 -182 b 100 482 50 -19 100 211 "},"*":{"ha":329,"x_min":0,"x_max":0,"o":"m 271 996 l 314 919 l 233 886 l 314 849 l 269 774 l 200 828 l 210 738 l 119 738 l 129 828 l 60 774 l 15 849 l 94 886 l 15 919 l 58 996 l 128 943 l 119 1033 l 210 1033 l 201 943 "},"+":{"ha":468,"x_min":0,"x_max":0,"o":"m 171 361 l 22 361 l 22 479 l 171 479 l 171 654 l 297 654 l 297 479 l 446 479 l 446 361 l 297 361 l 297 188 l 171 188 "},",":{"ha":190,"x_min":0,"x_max":0,"o":"m 53 -125 b 82 0 63 -101 78 -46 l 22 0 l 22 178 l 168 178 l 168 47 b 131 -125 168 -40 146 -96 "},"-":{"ha":240,"x_min":0,"x_max":0,"o":"m 218 482 l 218 346 l 22 346 l 22 482 "},".":{"ha":190,"x_min":0,"x_max":0,"o":"m 168 0 l 22 0 l 22 178 l 168 178 "},"/":{"ha":290,"x_min":0,"x_max":0,"o":"m 107 -182 l -10 -182 l 168 1122 l 285 1122 "},":":{"ha":196,"x_min":0,"x_max":0,"o":"m 171 0 l 25 0 l 25 178 l 171 178 m 171 415 l 25 415 l 25 593 l 171 593 "},";":{"ha":196,"x_min":0,"x_max":0,"o":"m 56 -125 b 85 0 65 -101 81 -46 l 25 0 l 25 178 l 171 178 l 171 47 b 133 -125 171 -40 149 -96 "},"<":{"ha":393,"x_min":0,"x_max":0,"o":"m 14 474 l 375 618 l 375 504 l 150 419 l 375 336 l 375 224 l 14 368 "},"=":{"ha":464,"x_min":0,"x_max":0,"o":"m 439 399 l 439 293 l 25 293 l 25 399 m 439 547 l 439 442 l 25 442 l 25 547 "},">":{"ha":393,"x_min":0,"x_max":0,"o":"m 18 618 l 379 474 l 379 368 l 18 224 l 18 336 l 242 421 l 18 504 "},"?":{"ha":424,"x_min":0,"x_max":0,"o":"m 128 213 l 128 379 b 176 565 128 467 132 492 l 217 633 b 249 768 247 682 249 714 l 249 843 b 208 897 249 882 240 897 b 171 843 176 897 171 882 l 171 676 l 21 676 l 21 843 b 193 1046 21 960 50 1046 l 224 1046 b 408 853 367 1046 408 974 l 408 750 b 346 564 408 681 393 633 l 300 500 b 254 333 260 440 254 415 l 254 213 m 264 0 l 119 0 l 119 178 l 264 178 "},"@":{"ha":756,"x_min":0,"x_max":0,"o":"m 669 -42 b 389 -193 639 -87 550 -193 l 379 -193 b 24 357 218 -193 24 -126 l 24 482 b 388 1007 24 832 144 1007 l 404 1007 b 732 576 636 1007 732 861 l 732 451 b 550 53 732 154 664 53 l 547 53 b 422 139 451 53 429 113 b 306 53 385 79 354 53 l 297 53 b 197 203 247 53 193 100 l 215 632 b 315 753 219 692 249 753 l 322 753 b 419 682 361 753 393 725 l 422 747 l 569 747 l 540 178 b 558 153 540 165 540 153 b 624 449 596 153 624 222 l 624 578 b 404 906 624 822 550 906 l 388 906 b 136 479 228 906 136 785 l 136 358 b 379 -87 136 -58 294 -87 l 389 -87 b 604 38 497 -87 578 -7 m 415 588 b 388 632 417 617 411 632 b 360 588 367 632 361 615 l 342 215 b 367 171 340 194 340 171 b 397 215 389 171 396 189 "},"A":{"ha":444,"x_min":0,"x_max":0,"o":"m 274 194 l 158 194 l 139 0 l -1 0 l 125 1033 l 311 1033 l 446 0 l 294 0 m 175 349 l 257 349 l 215 731 "},"B":{"ha":479,"x_min":0,"x_max":0,"o":"m 32 1033 l 279 1033 b 444 865 408 1033 444 965 l 444 707 b 367 564 444 619 407 579 b 457 413 407 549 457 517 l 457 189 b 290 0 457 79 408 0 l 32 0 m 189 471 l 189 146 l 236 146 b 297 215 286 146 297 169 l 297 404 b 236 471 297 447 286 471 m 189 893 l 189 625 l 236 625 b 290 697 279 625 290 654 l 290 828 b 236 893 290 871 279 893 "},"C":{"ha":467,"x_min":0,"x_max":0,"o":"m 289 210 l 289 450 l 443 450 l 443 211 b 256 -12 443 100 406 -12 l 221 -12 b 28 206 61 -12 28 101 l 28 836 b 215 1043 28 942 74 1043 l 251 1043 b 443 828 424 1043 443 929 l 443 643 l 289 643 l 289 825 b 236 893 289 869 275 893 b 188 825 197 893 188 871 l 188 211 b 238 140 188 164 204 140 b 289 210 275 140 289 167 "},"D":{"ha":478,"x_min":0,"x_max":0,"o":"m 32 1033 l 272 1033 b 449 835 407 1033 449 957 l 449 206 b 272 0 449 78 401 0 l 32 0 m 189 150 l 226 150 b 288 231 275 150 288 175 l 288 813 b 233 893 288 872 272 893 l 189 893 "},"E":{"ha":411,"x_min":0,"x_max":0,"o":"m 389 1033 l 389 883 l 189 883 l 189 613 l 346 613 l 346 456 l 189 456 l 189 157 l 397 157 l 397 0 l 32 0 l 32 1033 "},"F":{"ha":403,"x_min":0,"x_max":0,"o":"m 32 1033 l 389 1033 l 389 883 l 189 883 l 189 611 l 347 611 l 347 454 l 189 454 l 189 0 l 32 0 "},"G":{"ha":474,"x_min":0,"x_max":0,"o":"m 178 -14 b 28 175 85 -14 28 68 l 28 821 b 221 1043 28 936 71 1043 l 251 1043 b 439 811 419 1043 439 933 l 439 706 l 286 706 l 286 822 b 236 893 286 868 275 893 b 188 822 204 893 188 869 l 188 218 b 239 144 188 169 204 144 b 297 211 279 144 297 172 l 297 469 l 226 469 l 226 628 l 446 628 l 446 0 l 357 0 b 331 101 356 6 343 57 b 188 -14 319 67 267 -14 "},"H":{"ha":485,"x_min":0,"x_max":0,"o":"m 189 0 l 32 0 l 32 1033 l 189 1033 l 189 619 l 296 619 l 296 1033 l 453 1033 l 453 0 l 296 0 l 296 454 l 189 454 "},"I":{"ha":221,"x_min":0,"x_max":0,"o":"m 189 0 l 32 0 l 32 1033 l 189 1033 "},"J":{"ha":443,"x_min":0,"x_max":0,"o":"m 175 456 l 175 201 b 213 144 175 164 183 144 l 218 144 b 254 201 247 144 254 169 l 254 1033 l 414 1033 l 414 189 b 236 -8 414 54 346 -8 l 193 -8 b 21 179 92 -8 21 38 l 21 456 "},"K":{"ha":475,"x_min":0,"x_max":0,"o":"m 189 0 l 32 0 l 32 1033 l 189 1033 l 189 619 l 313 1033 l 465 1033 l 319 553 l 481 0 l 319 0 l 189 449 "},"L":{"ha":394,"x_min":0,"x_max":0,"o":"m 189 1033 l 189 160 l 381 160 l 381 0 l 32 0 l 32 1033 "},"M":{"ha":604,"x_min":0,"x_max":0,"o":"m 32 1033 l 233 1033 l 308 488 l 385 1033 l 572 1033 l 572 0 l 425 0 l 425 668 l 331 0 l 268 0 l 172 668 l 172 0 l 32 0 "},"N":{"ha":483,"x_min":0,"x_max":0,"o":"m 174 1033 l 308 479 l 308 1033 l 451 1033 l 451 0 l 324 0 l 174 594 l 174 0 l 32 0 l 32 1033 "},"O":{"ha":485,"x_min":0,"x_max":0,"o":"m 457 231 b 257 -12 457 86 408 -12 l 231 -12 b 28 231 81 -12 28 86 l 28 806 b 229 1043 28 950 81 1043 l 256 1043 b 457 807 408 1043 457 949 m 297 814 b 243 893 297 867 279 893 b 188 814 203 893 188 868 l 188 219 b 244 140 188 175 200 140 b 297 219 288 140 297 175 "},"P":{"ha":463,"x_min":0,"x_max":0,"o":"m 189 429 l 189 0 l 32 0 l 32 1033 l 281 1033 b 442 863 392 1033 442 986 l 442 618 b 281 429 442 496 388 429 m 189 578 l 229 578 b 283 653 278 578 283 610 l 283 822 b 229 893 283 863 275 893 l 189 893 "},"Q":{"ha":485,"x_min":0,"x_max":0,"o":"m 457 231 b 310 -7 457 104 419 14 l 382 -215 l 194 -215 l 194 -10 b 28 231 72 6 28 97 l 28 806 b 229 1043 28 950 81 1043 l 256 1043 b 457 807 408 1043 457 949 m 297 814 b 243 893 297 867 279 893 b 188 814 203 893 188 868 l 188 219 b 244 140 188 175 200 140 b 297 219 288 140 297 175 "},"R":{"ha":471,"x_min":0,"x_max":0,"o":"m 189 608 l 231 608 b 288 682 274 608 288 636 l 288 826 b 231 893 288 871 279 893 l 189 893 m 189 0 l 32 0 l 32 1033 l 286 1033 b 443 874 392 1033 443 990 l 443 690 b 375 558 443 604 403 569 b 443 446 410 543 443 517 l 443 83 b 458 7 443 40 451 22 l 458 0 l 303 0 b 288 85 296 11 288 29 l 288 396 b 229 461 288 442 279 461 l 189 461 "},"S":{"ha":463,"x_min":0,"x_max":0,"o":"m 250 1043 b 429 864 379 1043 429 986 l 429 694 l 278 694 l 278 843 b 233 904 278 878 271 904 b 188 832 196 904 188 881 l 188 813 b 251 654 188 754 199 722 l 351 525 b 444 264 422 433 444 382 l 444 231 b 242 -11 444 79 381 -11 l 211 -11 b 19 185 85 -11 19 57 l 19 392 l 175 392 l 175 211 b 226 139 175 163 192 139 b 278 228 264 139 278 163 l 278 251 b 214 425 278 326 271 350 l 114 553 b 28 808 47 639 28 706 l 28 842 b 221 1043 28 981 97 1043 "},"T":{"ha":444,"x_min":0,"x_max":0,"o":"m 432 1033 l 432 883 l 300 883 l 300 0 l 144 0 l 144 883 l 13 883 l 13 1033 "},"U":{"ha":479,"x_min":0,"x_max":0,"o":"m 29 1033 l 189 1033 l 189 215 b 239 142 189 171 204 142 b 290 215 276 142 290 169 l 290 1033 l 450 1033 l 450 225 b 253 -12 450 79 392 -12 l 225 -12 b 29 225 86 -12 29 75 "},"V":{"ha":454,"x_min":0,"x_max":0,"o":"m 1 1033 l 161 1033 l 232 322 l 304 1033 l 453 1033 l 322 0 l 132 0 "},"W":{"ha":738,"x_min":0,"x_max":0,"o":"m 446 1033 l 517 364 l 589 1033 l 736 1033 l 604 0 l 436 0 l 371 601 l 304 0 l 131 0 l 1 1033 l 160 1033 l 231 365 l 300 1033 "},"X":{"ha":475,"x_min":0,"x_max":0,"o":"m 18 1033 l 178 1033 l 244 707 l 308 1033 l 461 1033 l 343 553 l 476 0 l 314 0 l 236 374 l 157 0 l -1 0 l 135 553 "},"Y":{"ha":425,"x_min":0,"x_max":0,"o":"m 293 429 l 293 0 l 136 0 l 136 431 l -6 1033 l 147 1033 l 219 647 l 289 1033 l 431 1033 "},"Z":{"ha":424,"x_min":0,"x_max":0,"o":"m 401 1033 l 401 897 l 175 151 l 413 151 l 413 0 l 11 0 l 11 140 l 235 886 l 25 886 l 25 1033 "},"[":{"ha":267,"x_min":0,"x_max":0,"o":"m 258 1011 l 183 1011 l 183 -69 l 258 -69 l 258 -181 l 56 -181 l 56 1122 l 258 1122 "},"\\":{"ha":290,"x_min":0,"x_max":0,"o":"m 6 1122 l 122 1122 l 299 -182 l 183 -182 "},"]":{"ha":268,"x_min":0,"x_max":0,"o":"m 8 -69 l 83 -69 l 83 1011 l 8 1011 l 10 1122 l 213 1122 l 211 -181 l 8 -181 "},"^":{"ha":307,"x_min":0,"x_max":0,"o":"m 304 610 l 197 610 l 151 833 l 108 610 l 3 610 l 99 1033 l 208 1033 "},"_":{"ha":435,"x_min":0,"x_max":0,"o":"m 7 -28 l 428 -28 l 428 -144 l 7 -144 "},"`":{"ha":475,"x_min":0,"x_max":0,"o":"m 203 788 l 149 968 l 275 968 l 326 788 "},"a":{"ha":431,"x_min":0,"x_max":0,"o":"m 21 288 b 92 438 21 361 38 404 b 221 504 125 460 200 493 b 239 536 236 514 239 515 l 239 583 b 203 632 239 621 229 632 l 200 632 b 163 585 171 632 163 618 l 163 506 l 29 506 l 29 611 b 186 753 29 667 46 753 l 214 753 b 382 606 357 753 382 683 l 382 161 b 406 138 382 143 385 138 l 432 138 l 432 0 l 290 0 b 242 85 258 0 242 22 b 119 -4 222 50 183 -4 l 115 -4 b 21 113 56 -4 21 53 m 239 378 b 186 340 222 368 201 356 b 167 281 171 325 167 310 l 167 178 b 201 129 167 146 178 129 b 239 185 226 129 239 147 "},"b":{"ha":433,"x_min":0,"x_max":0,"o":"m 176 1033 l 176 664 b 300 751 192 686 232 751 l 304 751 b 408 624 371 751 408 696 l 408 160 b 274 -6 408 69 361 -6 l 271 -6 b 140 100 197 -6 156 67 b 122 0 131 65 124 21 l 28 0 l 28 1033 m 176 189 b 218 132 176 154 192 132 b 257 188 246 132 257 154 l 257 556 b 217 613 257 588 249 613 b 176 556 188 613 176 588 "},"c":{"ha":413,"x_min":0,"x_max":0,"o":"m 392 335 l 392 167 b 224 -12 392 82 347 -12 l 196 -12 b 24 168 78 -12 24 69 l 24 575 b 201 758 24 692 79 758 l 228 758 b 392 596 351 758 392 688 l 392 463 l 249 463 l 249 564 b 211 626 249 601 246 626 b 174 565 178 626 174 603 l 174 183 b 210 126 174 149 182 126 b 249 182 239 126 249 149 l 249 335 "},"d":{"ha":432,"x_min":0,"x_max":0,"o":"m 404 1033 l 404 0 l 256 0 l 256 85 b 140 -7 244 54 207 -7 l 139 -7 b 26 151 72 -7 26 57 l 26 607 b 133 751 26 678 57 751 l 136 751 b 256 668 204 751 236 694 l 256 1033 m 256 551 b 214 618 256 590 246 618 b 175 558 188 618 175 599 l 175 189 b 214 129 175 149 188 129 b 256 197 246 129 256 153 "},"e":{"ha":410,"x_min":0,"x_max":0,"o":"m 221 757 b 388 571 338 757 388 693 l 388 356 l 167 356 l 167 183 b 207 128 167 150 175 128 b 244 182 233 128 244 150 l 244 306 l 388 306 l 388 175 b 214 -14 388 42 319 -14 l 188 -14 b 24 174 88 -14 24 46 l 24 578 b 193 757 24 679 72 757 m 167 478 l 249 478 l 249 572 b 208 632 249 606 243 632 b 167 572 171 632 167 606 "},"f":{"ha":356,"x_min":0,"x_max":0,"o":"m 343 896 l 276 896 b 246 860 250 896 246 886 l 246 747 l 343 747 l 343 606 l 246 606 l 246 0 l 97 0 l 97 606 l 8 606 l 8 747 l 97 747 l 97 938 b 203 1033 97 978 119 1033 l 343 1033 "},"g":{"ha":433,"x_min":0,"x_max":0,"o":"m 257 89 b 135 -7 235 40 196 -7 b 26 132 75 -7 26 49 l 26 579 b 136 751 26 689 64 751 b 260 661 201 751 233 710 l 260 747 l 406 747 l 406 -121 b 231 -271 406 -175 392 -271 l 197 -271 b 32 -143 63 -271 32 -210 l 32 -35 l 175 -35 l 175 -101 b 213 -144 175 -129 185 -144 l 218 -144 b 257 -101 250 -144 257 -129 m 257 565 b 215 619 257 597 247 619 b 176 565 188 619 176 597 l 176 186 b 217 131 176 153 189 131 b 257 188 243 131 257 153 "},"h":{"ha":435,"x_min":0,"x_max":0,"o":"m 28 1033 l 176 1033 l 176 663 b 300 751 203 707 243 751 l 307 751 b 407 636 386 751 407 685 l 407 0 l 257 0 l 257 560 b 218 615 257 594 247 615 b 176 554 186 615 176 594 l 176 0 l 28 0 "},"i":{"ha":204,"x_min":0,"x_max":0,"o":"m 176 0 l 28 0 l 28 747 l 176 747 m 176 788 l 28 788 l 28 947 l 176 947 "},"j":{"ha":206,"x_min":0,"x_max":0,"o":"m 178 788 l 29 788 l 29 947 l 178 947 m 0 -119 b 29 -86 19 -119 29 -108 l 29 747 l 178 747 l 178 -153 b 82 -261 178 -243 128 -261 l -69 -261 l -69 -119 "},"k":{"ha":442,"x_min":0,"x_max":0,"o":"m 292 747 l 440 747 l 300 428 l 450 0 l 296 0 l 176 346 l 176 0 l 28 0 l 28 1033 l 176 1033 l 176 475 "},"l":{"ha":204,"x_min":0,"x_max":0,"o":"m 176 0 l 28 0 l 28 1033 l 176 1033 "},"m":{"ha":654,"x_min":0,"x_max":0,"o":"m 28 747 l 174 747 l 174 663 b 296 751 192 692 235 751 l 301 751 b 399 664 361 751 389 710 b 525 751 421 701 463 751 l 532 751 b 626 639 597 751 626 707 l 626 0 l 478 0 l 478 554 b 440 615 478 592 472 615 b 401 565 413 615 403 597 l 401 0 l 253 0 l 253 554 b 214 615 253 592 247 615 b 176 554 182 615 176 594 l 176 0 l 28 0 "},"n":{"ha":435,"x_min":0,"x_max":0,"o":"m 28 747 l 174 747 l 174 660 b 300 751 197 701 240 751 l 307 751 b 407 636 383 751 407 685 l 407 0 l 257 0 l 257 560 b 218 615 257 594 247 615 b 176 554 186 615 176 594 l 176 0 l 28 0 "},"o":{"ha":431,"x_min":0,"x_max":0,"o":"m 24 565 b 201 758 24 689 89 758 l 229 758 b 407 571 340 758 407 693 l 407 181 b 229 -12 407 81 344 -12 l 201 -12 b 24 181 72 -12 24 81 m 174 188 b 215 129 174 150 188 129 b 257 188 244 129 257 154 l 257 564 b 215 621 257 607 242 621 b 174 564 189 621 174 607 "},"p":{"ha":435,"x_min":0,"x_max":0,"o":"m 176 747 l 176 667 b 297 751 194 696 233 751 l 299 751 b 408 611 375 751 408 690 l 408 142 b 294 -6 408 43 356 -6 l 292 -6 b 176 65 238 -6 203 33 l 176 -261 l 28 -261 l 28 747 m 176 178 b 218 121 176 139 196 121 b 257 175 246 121 257 142 l 257 565 b 218 619 257 601 244 619 b 176 565 192 619 176 599 "},"q":{"ha":435,"x_min":0,"x_max":0,"o":"m 407 747 l 407 -261 l 258 -261 l 258 85 b 139 -4 247 58 206 -4 l 136 -4 b 26 158 64 -4 26 71 l 26 582 b 151 751 26 664 60 751 l 154 751 b 294 633 226 751 268 689 b 317 747 304 663 313 701 m 258 551 b 214 613 258 596 240 613 b 176 553 186 613 176 586 l 176 181 b 218 125 176 140 192 125 b 258 188 244 125 258 146 "},"r":{"ha":389,"x_min":0,"x_max":0,"o":"m 174 653 b 288 751 186 681 218 751 l 293 751 b 371 667 347 751 371 717 l 371 396 l 226 396 l 226 563 b 201 608 226 594 225 608 b 176 563 178 608 176 592 l 176 0 l 28 0 l 28 747 l 174 747 "},"s":{"ha":386,"x_min":0,"x_max":0,"o":"m 364 624 l 364 511 l 231 511 l 231 600 b 197 642 231 628 219 642 b 165 596 171 642 165 625 l 165 583 b 200 500 165 546 174 532 l 290 392 b 374 186 360 308 374 261 l 374 167 b 206 -12 374 78 328 -12 l 176 -12 b 15 140 58 -12 15 56 l 15 275 l 154 275 l 154 168 b 192 117 154 129 165 117 b 226 168 215 117 226 133 l 226 181 b 186 288 226 213 224 244 l 99 388 b 25 581 39 456 25 510 l 25 601 b 186 758 25 696 74 758 l 213 758 b 364 624 331 758 364 696 "},"t":{"ha":343,"x_min":0,"x_max":0,"o":"m 182 0 b 93 92 132 0 93 25 l 93 606 l 8 606 l 8 747 l 93 747 l 93 993 l 242 993 l 242 747 l 329 747 l 329 606 l 242 606 l 242 178 b 271 143 242 151 244 143 l 329 143 l 329 0 "},"u":{"ha":426,"x_min":0,"x_max":0,"o":"m 399 0 l 256 0 l 256 89 b 129 -3 229 49 194 -3 l 126 -3 b 28 124 67 -3 28 60 l 28 747 l 176 747 l 176 188 b 211 138 176 160 185 138 b 250 192 243 138 250 160 l 250 747 l 399 747 "},"v":{"ha":392,"x_min":0,"x_max":0,"o":"m -1 747 l 143 747 l 200 281 l 256 747 l 393 747 l 278 0 l 118 0 "},"w":{"ha":639,"x_min":0,"x_max":0,"o":"m 113 0 l -1 747 l 147 747 l 203 282 l 260 747 l 390 747 l 447 282 l 503 747 l 640 747 l 526 0 l 376 0 l 322 425 l 268 0 "},"x":{"ha":392,"x_min":0,"x_max":0,"o":"m 1 747 l 144 747 l 200 525 l 250 747 l 382 747 l 288 401 l 394 0 l 256 0 l 196 238 l 132 0 l -3 0 l 104 399 "},"y":{"ha":396,"x_min":0,"x_max":0,"o":"m -1 747 l 143 747 l 201 290 l 257 747 l 399 747 l 249 -150 b 157 -261 236 -224 211 -261 l 17 -261 l 17 -119 l 81 -119 b 114 -82 107 -119 110 -108 l 118 -50 b 115 22 122 -18 119 -4 "},"z":{"ha":346,"x_min":0,"x_max":0,"o":"m 324 747 l 324 624 l 151 136 l 335 136 l 335 0 l 10 0 l 10 131 l 178 614 l 25 614 l 25 747 "},"{":{"ha":278,"x_min":0,"x_max":0,"o":"m 226 358 b 188 -1 226 285 188 67 b 247 -71 188 -46 201 -71 l 269 -71 l 269 -182 l 225 -182 b 53 -15 113 -182 53 -133 b 99 361 53 58 99 260 b 61 410 99 389 89 410 l 28 410 l 28 538 l 57 538 b 99 579 85 538 99 551 b 53 969 99 683 53 894 b 225 1122 53 1089 119 1122 l 269 1122 l 269 1011 l 244 1011 b 188 947 201 1011 188 988 b 226 593 188 882 226 665 b 163 474 226 536 217 496 b 226 358 217 451 226 413 "},"|":{"ha":238,"x_min":0,"x_max":0,"o":"m 175 -182 l 63 -182 l 63 1122 l 175 1122 "},"}":{"ha":278,"x_min":0,"x_max":0,"o":"m 51 593 b 90 947 51 665 90 882 b 35 1011 90 988 78 1011 l 8 1011 l 8 1122 l 53 1122 b 225 969 160 1122 225 1088 b 181 579 225 894 181 683 b 222 538 181 551 190 538 l 250 538 l 250 410 l 217 410 b 181 361 189 410 181 389 b 225 -15 181 260 225 58 b 53 -182 225 -133 165 -182 l 8 -182 l 8 -71 l 31 -71 b 90 -1 79 -71 90 -46 b 51 358 90 67 51 285 b 115 474 51 413 61 451 b 51 593 61 496 51 536 "},"~":{"ha":383,"x_min":0,"x_max":0,"o":"m 181 488 b 131 535 146 528 140 535 b 122 519 125 535 122 529 l 122 422 l 18 422 l 18 583 b 106 676 18 624 43 676 b 208 614 146 676 171 660 b 253 568 240 575 246 568 b 261 582 258 568 261 572 l 261 683 l 365 683 l 365 519 b 281 426 365 464 329 426 b 181 488 243 426 219 442 "},"Ä":{"ha":444,"x_min":0,"x_max":0,"o":"m 274 194 l 158 194 l 139 0 l -1 0 l 125 1033 l 311 1033 l 446 0 l 294 0 m 175 349 l 257 349 l 215 731 m 199 1074 l 74 1074 l 74 1211 l 199 1211 m 360 1074 l 235 1074 l 235 1211 l 360 1211 "},"Å":{"ha":444,"x_min":0,"x_max":0,"o":"m 274 194 l 158 194 l 139 0 l -1 0 l 125 1033 l 311 1033 l 446 0 l 294 0 m 175 349 l 257 349 l 215 731 m 218 1129 b 261 1175 244 1129 261 1147 b 218 1221 261 1201 244 1221 b 175 1175 192 1221 175 1201 b 218 1129 175 1147 192 1129 m 328 1176 b 218 1064 328 1111 283 1064 b 107 1176 153 1064 107 1111 b 218 1286 107 1238 156 1286 b 328 1176 283 1286 328 1238 "},"Ç":{"ha":467,"x_min":0,"x_max":0,"o":"m 289 450 l 443 450 l 443 211 b 256 -12 443 100 406 -12 l 221 -12 b 28 206 61 -12 28 101 l 28 836 b 215 1043 28 942 74 1043 l 251 1043 b 443 828 424 1043 443 929 l 443 643 l 289 643 l 289 825 b 236 893 289 869 275 893 b 188 825 197 893 188 871 l 188 211 b 238 140 188 164 204 140 b 289 210 275 140 289 167 m 138 -261 l 138 -178 l 190 -178 b 224 -153 213 -178 224 -169 b 190 -126 224 -135 213 -126 l 158 -126 l 158 0 l 235 0 l 235 -56 b 342 -154 300 -56 342 -87 l 342 -158 b 214 -261 342 -229 285 -261 "},"É":{"ha":411,"x_min":0,"x_max":0,"o":"m 389 1033 l 389 883 l 189 883 l 189 613 l 346 613 l 346 456 l 189 456 l 189 157 l 397 157 l 397 0 l 32 0 l 32 1033 m 208 1225 l 339 1225 l 278 1074 l 150 1074 "},"Ñ":{"ha":483,"x_min":0,"x_max":0,"o":"m 174 1033 l 308 479 l 308 1033 l 451 1033 l 451 0 l 324 0 l 174 594 l 174 0 l 32 0 l 32 1033 m 383 1156 b 325 1076 383 1107 363 1076 l 324 1076 b 244 1100 297 1076 276 1085 b 213 1113 229 1107 222 1113 b 203 1100 206 1113 203 1108 l 203 1074 l 114 1074 l 114 1139 b 174 1217 114 1193 136 1217 l 175 1217 b 250 1194 199 1217 217 1211 b 286 1179 267 1185 276 1179 b 294 1192 292 1179 294 1183 l 294 1219 l 383 1219 "},"Ö":{"ha":485,"x_min":0,"x_max":0,"o":"m 457 231 b 257 -12 457 86 408 -12 l 231 -12 b 28 231 81 -12 28 86 l 28 806 b 229 1043 28 950 81 1043 l 256 1043 b 457 807 408 1043 457 949 m 297 814 b 243 893 297 867 279 893 b 188 814 203 893 188 868 l 188 219 b 244 140 188 175 200 140 b 297 219 288 140 297 175 m 224 1074 l 99 1074 l 99 1211 l 224 1211 m 385 1074 l 260 1074 l 260 1211 l 385 1211 "},"Ü":{"ha":479,"x_min":0,"x_max":0,"o":"m 29 1033 l 189 1033 l 189 215 b 239 142 189 171 204 142 b 290 215 276 142 290 169 l 290 1033 l 450 1033 l 450 225 b 253 -12 450 79 392 -12 l 225 -12 b 29 225 86 -12 29 75 m 221 1074 l 96 1074 l 96 1211 l 221 1211 m 382 1074 l 257 1074 l 257 1211 l 382 1211 "},"á":{"ha":431,"x_min":0,"x_max":0,"o":"m 21 288 b 92 438 21 361 38 404 b 221 504 125 460 200 493 b 239 536 236 514 239 515 l 239 583 b 203 632 239 621 229 632 l 200 632 b 163 585 171 632 163 618 l 163 506 l 29 506 l 29 611 b 186 753 29 667 46 753 l 214 753 b 382 606 357 753 382 683 l 382 161 b 406 138 382 143 385 138 l 432 138 l 432 0 l 290 0 b 242 85 258 0 242 22 b 119 -4 222 50 183 -4 l 115 -4 b 21 113 56 -4 21 53 m 239 378 b 186 340 222 368 201 356 b 167 281 171 325 167 310 l 167 178 b 201 129 167 146 178 129 b 239 185 226 129 239 147 m 193 968 l 318 968 l 263 788 l 140 788 "},"à":{"ha":431,"x_min":0,"x_max":0,"o":"m 21 288 b 92 438 21 361 38 404 b 221 504 125 460 200 493 b 239 536 236 514 239 515 l 239 583 b 203 632 239 621 229 632 l 200 632 b 163 585 171 632 163 618 l 163 506 l 29 506 l 29 611 b 186 753 29 667 46 753 l 214 753 b 382 606 357 753 382 683 l 382 161 b 406 138 382 143 385 138 l 432 138 l 432 0 l 290 0 b 242 85 258 0 242 22 b 119 -4 222 50 183 -4 l 115 -4 b 21 113 56 -4 21 53 m 239 378 b 186 340 222 368 201 356 b 167 281 171 325 167 310 l 167 178 b 201 129 167 146 178 129 b 239 185 226 129 239 147 m 138 788 l 83 968 l 210 968 l 261 788 "},"â":{"ha":431,"x_min":0,"x_max":0,"o":"m 21 288 b 92 438 21 361 38 404 b 221 504 125 460 200 493 b 239 536 236 514 239 515 l 239 583 b 203 632 239 621 229 632 l 200 632 b 163 585 171 632 163 618 l 163 506 l 29 506 l 29 611 b 186 753 29 667 46 753 l 214 753 b 382 606 357 753 382 683 l 382 161 b 406 138 382 143 385 138 l 432 138 l 432 0 l 290 0 b 242 85 258 0 242 22 b 119 -4 222 50 183 -4 l 115 -4 b 21 113 56 -4 21 53 m 239 378 b 186 340 222 368 201 356 b 167 281 171 325 167 310 l 167 178 b 201 129 167 146 178 129 b 239 185 226 129 239 147 m 344 788 l 235 788 l 200 878 l 165 788 l 58 788 l 138 969 l 265 969 "},"ä":{"ha":431,"x_min":0,"x_max":0,"o":"m 21 288 b 92 438 21 361 38 404 b 221 504 125 460 200 493 b 239 536 236 514 239 515 l 239 583 b 203 632 239 621 229 632 l 200 632 b 163 585 171 632 163 618 l 163 506 l 29 506 l 29 611 b 186 753 29 667 46 753 l 214 753 b 382 606 357 753 382 683 l 382 161 b 406 138 382 143 385 138 l 432 138 l 432 0 l 290 0 b 242 85 258 0 242 22 b 119 -4 222 50 183 -4 l 115 -4 b 21 113 56 -4 21 53 m 239 378 b 186 340 222 368 201 356 b 167 281 171 325 167 310 l 167 178 b 201 129 167 146 178 129 b 239 185 226 129 239 147 m 185 788 l 61 788 l 61 924 l 185 924 m 342 788 l 218 788 l 218 924 l 342 924 "},"ã":{"ha":431,"x_min":0,"x_max":0,"o":"m 21 288 b 92 438 21 361 38 404 b 221 504 125 460 200 493 b 239 536 236 514 239 515 l 239 583 b 203 632 239 621 229 632 l 200 632 b 163 585 171 632 163 618 l 163 506 l 29 506 l 29 611 b 186 753 29 667 46 753 l 214 753 b 382 606 357 753 382 683 l 382 161 b 406 138 382 143 385 138 l 432 138 l 432 0 l 290 0 b 242 85 258 0 242 22 b 119 -4 222 50 183 -4 l 115 -4 b 21 113 56 -4 21 53 m 239 378 b 186 340 222 368 201 356 b 167 281 171 325 167 310 l 167 178 b 201 129 167 146 178 129 b 239 185 226 129 239 147 m 336 933 l 336 869 b 278 790 336 821 315 790 l 276 790 b 197 814 250 790 229 799 b 165 826 182 821 175 826 b 156 814 158 826 156 822 l 156 788 l 67 788 l 67 853 b 126 931 67 907 89 931 l 128 931 b 203 908 151 931 169 925 b 239 893 219 899 229 893 b 247 906 244 893 247 897 l 247 933 "},"å":{"ha":431,"x_min":0,"x_max":0,"o":"m 21 288 b 92 438 21 361 38 404 b 221 504 125 460 200 493 b 239 536 236 514 239 515 l 239 583 b 203 632 239 621 229 632 l 200 632 b 163 585 171 632 163 618 l 163 506 l 29 506 l 29 611 b 186 753 29 667 46 753 l 214 753 b 382 606 357 753 382 683 l 382 161 b 406 138 382 143 385 138 l 432 138 l 432 0 l 290 0 b 242 85 258 0 242 22 b 119 -4 222 50 183 -4 l 115 -4 b 21 113 56 -4 21 53 m 239 378 b 186 340 222 368 201 356 b 167 281 171 325 167 310 l 167 178 b 201 129 167 146 178 129 b 239 185 226 129 239 147 m 201 782 b 90 894 136 782 90 829 b 201 1004 90 956 139 1004 b 311 894 267 1004 311 956 b 201 782 311 829 267 782 m 201 847 b 244 893 228 847 244 865 b 201 939 244 919 228 939 b 158 893 175 939 158 919 b 201 847 158 865 175 847 "},"ç":{"ha":413,"x_min":0,"x_max":0,"o":"m 392 335 l 392 167 b 224 -12 392 82 347 -12 l 196 -12 b 24 168 78 -12 24 69 l 24 575 b 201 758 24 692 79 758 l 228 758 b 392 596 351 758 392 688 l 392 463 l 249 463 l 249 564 b 211 626 249 601 246 626 b 174 565 178 626 174 603 l 174 183 b 210 126 174 149 182 126 b 249 182 239 126 249 149 l 249 335 m 111 -261 l 111 -178 l 164 -178 b 197 -153 186 -178 197 -169 b 164 -126 197 -135 186 -126 l 132 -126 l 132 0 l 208 0 l 208 -56 b 315 -154 274 -56 315 -87 l 315 -158 b 188 -261 315 -229 258 -261 "},"é":{"ha":410,"x_min":0,"x_max":0,"o":"m 221 757 b 388 571 338 757 388 693 l 388 356 l 167 356 l 167 183 b 207 128 167 150 175 128 b 244 182 233 128 244 150 l 244 306 l 388 306 l 388 175 b 214 -14 388 42 319 -14 l 188 -14 b 24 174 88 -14 24 46 l 24 578 b 193 757 24 679 72 757 m 167 478 l 249 478 l 249 572 b 208 632 249 606 243 632 b 167 572 171 632 167 606 m 199 968 l 324 968 l 268 788 l 146 788 "},"è":{"ha":410,"x_min":0,"x_max":0,"o":"m 221 757 b 388 571 338 757 388 693 l 388 356 l 167 356 l 167 183 b 207 128 167 150 175 128 b 244 182 233 128 244 150 l 244 306 l 388 306 l 388 175 b 214 -14 388 42 319 -14 l 188 -14 b 24 174 88 -14 24 46 l 24 578 b 193 757 24 679 72 757 m 167 478 l 249 478 l 249 572 b 208 632 249 606 243 632 b 167 572 171 632 167 606 m 144 788 l 90 968 l 217 968 l 268 788 "},"ê":{"ha":410,"x_min":0,"x_max":0,"o":"m 221 757 b 388 571 338 757 388 693 l 388 356 l 167 356 l 167 183 b 207 128 167 150 175 128 b 244 182 233 128 244 150 l 244 306 l 388 306 l 388 175 b 214 -14 388 42 319 -14 l 188 -14 b 24 174 88 -14 24 46 l 24 578 b 193 757 24 679 72 757 m 167 478 l 249 478 l 249 572 b 208 632 249 606 243 632 b 167 572 171 632 167 606 m 350 788 l 240 788 l 206 878 l 171 788 l 64 788 l 143 969 l 271 969 "},"ë":{"ha":410,"x_min":0,"x_max":0,"o":"m 221 757 b 388 571 338 757 388 693 l 388 356 l 167 356 l 167 183 b 207 128 167 150 175 128 b 244 182 233 128 244 150 l 244 306 l 388 306 l 388 175 b 214 -14 388 42 319 -14 l 188 -14 b 24 174 88 -14 24 46 l 24 578 b 193 757 24 679 72 757 m 167 478 l 249 478 l 249 572 b 208 632 249 606 243 632 b 167 572 171 632 167 606 m 190 788 l 67 788 l 67 924 l 190 924 m 347 788 l 224 788 l 224 924 l 347 924 "},"í":{"ha":204,"x_min":0,"x_max":0,"o":"m 176 0 l 28 0 l 28 747 l 176 747 m 96 968 l 221 968 l 165 788 l 43 788 "},"ì":{"ha":204,"x_min":0,"x_max":0,"o":"m 176 0 l 28 0 l 28 747 l 176 747 m 38 788 l -17 968 l 110 968 l 161 788 "},"î":{"ha":204,"x_min":0,"x_max":0,"o":"m 233 785 l 132 785 l 103 875 l 72 785 l -26 785 l 39 967 l 167 967 m 176 0 l 28 0 l 28 747 l 176 747 "},"ï":{"ha":204,"x_min":0,"x_max":0,"o":"m 88 788 l -28 788 l -28 924 l 88 924 m 232 788 l 117 788 l 117 924 l 232 924 m 176 0 l 28 0 l 28 747 l 176 747 "},"ñ":{"ha":435,"x_min":0,"x_max":0,"o":"m 28 747 l 174 747 l 174 660 b 300 751 197 701 240 751 l 307 751 b 407 636 383 751 407 685 l 407 0 l 257 0 l 257 560 b 218 615 257 594 247 615 b 176 554 186 615 176 594 l 176 0 l 28 0 m 351 933 l 351 869 b 293 790 351 821 331 790 l 292 790 b 213 814 265 790 244 799 b 181 826 197 821 190 826 b 171 814 174 826 171 822 l 171 788 l 82 788 l 82 853 b 142 931 82 907 104 931 l 143 931 b 218 908 167 931 185 925 b 254 893 235 899 244 893 b 263 906 260 893 263 897 l 263 933 "},"ó":{"ha":431,"x_min":0,"x_max":0,"o":"m 24 565 b 201 758 24 689 89 758 l 229 758 b 407 571 340 758 407 693 l 407 181 b 229 -12 407 81 344 -12 l 201 -12 b 24 181 72 -12 24 81 m 174 188 b 215 129 174 150 188 129 b 257 188 244 129 257 154 l 257 564 b 215 621 257 607 242 621 b 174 564 189 621 174 607 m 206 968 l 331 968 l 275 788 l 153 788 "},"ò":{"ha":431,"x_min":0,"x_max":0,"o":"m 24 565 b 201 758 24 689 89 758 l 229 758 b 407 571 340 758 407 693 l 407 181 b 229 -12 407 81 344 -12 l 201 -12 b 24 181 72 -12 24 81 m 174 188 b 215 129 174 150 188 129 b 257 188 244 129 257 154 l 257 564 b 215 621 257 607 242 621 b 174 564 189 621 174 607 m 151 788 l 97 968 l 224 968 l 275 788 "},"ô":{"ha":431,"x_min":0,"x_max":0,"o":"m 24 565 b 201 758 24 689 89 758 l 229 758 b 407 571 340 758 407 693 l 407 181 b 229 -12 407 81 344 -12 l 201 -12 b 24 181 72 -12 24 81 m 174 188 b 215 129 174 150 188 129 b 257 188 244 129 257 154 l 257 564 b 215 621 257 607 242 621 b 174 564 189 621 174 607 m 358 788 l 249 788 l 214 878 l 179 788 l 72 788 l 151 969 l 279 969 "},"ö":{"ha":431,"x_min":0,"x_max":0,"o":"m 24 565 b 201 758 24 689 89 758 l 229 758 b 407 571 340 758 407 693 l 407 181 b 229 -12 407 81 344 -12 l 201 -12 b 24 181 72 -12 24 81 m 174 188 b 215 129 174 150 188 129 b 257 188 244 129 257 154 l 257 564 b 215 621 257 607 242 621 b 174 564 189 621 174 607 m 199 788 l 75 788 l 75 924 l 199 924 m 356 788 l 232 788 l 232 924 l 356 924 "},"õ":{"ha":431,"x_min":0,"x_max":0,"o":"m 24 565 b 201 758 24 689 89 758 l 229 758 b 407 571 340 758 407 693 l 407 181 b 229 -12 407 81 344 -12 l 201 -12 b 24 181 72 -12 24 81 m 174 188 b 215 129 174 150 188 129 b 257 188 244 129 257 154 l 257 564 b 215 621 257 607 242 621 b 174 564 189 621 174 607 m 350 933 l 350 869 b 292 790 350 821 329 790 l 290 790 b 211 814 264 790 243 799 b 179 826 196 821 189 826 b 169 814 172 826 169 822 l 169 788 l 81 788 l 81 853 b 140 931 81 907 103 931 l 142 931 b 217 908 165 931 183 925 b 253 893 233 899 243 893 b 261 906 258 893 261 897 l 261 933 "},"ú":{"ha":426,"x_min":0,"x_max":0,"o":"m 399 0 l 256 0 l 256 89 b 129 -3 229 49 194 -3 l 126 -3 b 28 124 67 -3 28 60 l 28 747 l 176 747 l 176 188 b 211 138 176 160 185 138 b 250 192 243 138 250 160 l 250 747 l 399 747 m 203 968 l 328 968 l 272 788 l 150 788 "},"ù":{"ha":426,"x_min":0,"x_max":0,"o":"m 399 0 l 256 0 l 256 89 b 129 -3 229 49 194 -3 l 126 -3 b 28 124 67 -3 28 60 l 28 747 l 176 747 l 176 188 b 211 138 176 160 185 138 b 250 192 243 138 250 160 l 250 747 l 399 747 m 154 788 l 100 968 l 226 968 l 278 788 "},"û":{"ha":426,"x_min":0,"x_max":0,"o":"m 399 0 l 256 0 l 256 89 b 129 -3 229 49 194 -3 l 126 -3 b 28 124 67 -3 28 60 l 28 747 l 176 747 l 176 188 b 211 138 176 160 185 138 b 250 192 243 138 250 160 l 250 747 l 399 747 m 356 788 l 246 788 l 211 878 l 176 788 l 69 788 l 149 969 l 276 969 "},"ü":{"ha":426,"x_min":0,"x_max":0,"o":"m 399 0 l 256 0 l 256 89 b 129 -3 229 49 194 -3 l 126 -3 b 28 124 67 -3 28 60 l 28 747 l 176 747 l 176 188 b 211 138 176 160 185 138 b 250 192 243 138 250 160 l 250 747 l 399 747 m 196 788 l 72 788 l 72 924 l 196 924 m 353 788 l 229 788 l 229 924 l 353 924 "},"†":{"ha":342,"x_min":0,"x_max":0,"o":"m 99 682 l 10 682 l 10 829 l 99 829 l 99 1033 l 244 1033 l 244 829 l 332 829 l 332 682 l 244 682 l 244 0 l 99 0 "},"°":{"ha":290,"x_min":0,"x_max":0,"o":"m 8 903 b 146 1036 8 982 67 1036 b 282 903 225 1036 282 982 b 146 768 282 821 225 768 b 8 903 67 768 8 821 m 93 903 b 144 850 93 871 113 850 b 196 903 176 850 196 871 b 144 956 196 935 176 956 b 93 903 113 956 93 935 "},"¢":{"ha":424,"x_min":0,"x_max":0,"o":"m 404 167 b 243 -14 404 82 363 -7 l 243 -104 l 192 -104 l 192 -12 b 24 161 64 -6 24 82 l 24 569 b 192 757 24 686 75 753 l 192 846 l 243 846 l 243 758 b 404 592 363 754 404 681 l 404 464 l 272 464 l 272 571 b 243 628 272 593 267 618 l 243 122 b 269 175 264 133 269 154 l 269 336 l 404 336 m 163 175 b 192 121 163 153 169 131 l 192 628 b 163 572 168 618 163 599 "},"£":{"ha":539,"x_min":0,"x_max":0,"o":"m 263 353 b 176 139 263 243 225 188 l 369 139 l 369 344 l 518 344 l 518 0 l 11 0 l 11 85 b 119 296 56 121 119 181 b 110 450 119 339 115 390 l 11 450 l 11 578 l 97 578 b 88 761 92 639 88 701 l 88 818 b 276 1043 88 951 125 1043 l 314 1043 b 488 864 458 1043 488 947 l 488 688 l 339 688 l 339 831 b 294 897 339 874 332 897 b 249 831 256 897 249 874 l 249 713 b 251 578 249 667 250 621 l 422 578 l 422 450 l 260 450 b 263 353 261 413 263 381 "},"§":{"ha":528,"x_min":0,"x_max":0,"o":"m 511 338 b 393 190 511 240 454 201 b 458 21 450 126 458 99 l 458 -83 b 271 -271 458 -190 400 -271 l 235 -271 b 61 -87 124 -271 61 -204 l 61 75 l 215 75 l 215 -69 b 258 -128 215 -107 226 -128 b 296 -67 288 -128 296 -107 l 296 -12 b 225 142 296 57 288 83 l 121 233 b 17 447 32 307 17 358 l 17 501 b 135 635 17 578 58 622 b 78 826 86 683 78 738 l 78 864 b 263 1043 78 956 122 1043 l 297 1043 b 471 858 431 1043 471 976 l 471 733 l 318 733 l 318 846 b 276 904 318 892 308 904 b 236 846 243 904 236 883 l 236 836 b 299 683 236 761 243 731 b 397 597 321 663 364 626 b 511 375 504 497 511 461 m 288 481 b 249 511 286 481 269 496 l 210 542 b 168 481 186 538 168 524 l 168 457 b 232 344 168 407 176 389 l 244 333 b 274 310 254 326 263 319 l 315 276 b 354 356 333 281 354 294 l 354 365 b 288 481 354 414 346 429 "},"•":{"ha":303,"x_min":0,"x_max":0,"o":"m 19 457 b 151 589 19 535 75 589 b 283 457 228 589 283 535 b 151 325 283 379 228 325 b 19 457 75 325 19 379 "},"¶":{"ha":485,"x_min":0,"x_max":0,"o":"m 164 1033 l 479 1033 l 479 917 l 428 917 l 428 0 l 322 0 l 322 917 l 275 917 l 275 0 l 171 0 l 171 474 l 164 474 b 21 632 63 474 21 521 l 21 885 b 164 1033 21 986 63 1033 "},"ß":{"ha":433,"x_min":0,"x_max":0,"o":"m 340 614 b 413 488 376 600 413 578 l 413 175 b 247 0 413 58 383 0 l 203 0 l 203 149 l 229 149 b 261 189 250 149 261 163 l 261 456 b 229 496 261 482 256 496 l 203 496 l 203 642 l 226 642 b 257 689 247 642 257 651 l 257 851 b 219 904 257 883 251 904 l 213 904 b 176 853 186 904 176 885 l 176 0 l 28 0 l 28 867 b 196 1036 28 974 85 1036 l 235 1036 b 400 860 351 1036 400 983 l 400 718 b 340 614 400 656 372 629 "},"®":{"ha":371,"x_min":0,"x_max":0,"o":"m 183 560 b 18 736 82 560 18 626 l 18 871 b 183 1042 18 969 78 1042 l 193 1042 b 353 871 294 1042 353 972 l 353 736 b 192 560 353 631 286 560 m 192 608 b 297 746 271 608 297 669 l 297 863 b 193 993 297 928 275 993 l 185 993 b 72 857 101 992 72 944 l 72 746 b 185 608 72 672 100 608 m 175 653 l 113 653 l 113 957 l 207 957 b 260 903 242 957 260 939 l 260 856 b 235 815 260 836 251 822 b 260 778 256 810 260 794 l 260 688 b 265 658 260 671 261 664 l 265 653 l 204 653 b 200 681 201 658 200 668 l 200 765 b 186 783 200 781 201 783 l 175 783 m 175 833 l 188 833 b 200 851 197 833 200 836 l 200 892 b 188 908 200 903 196 908 l 175 908 "},"©":{"ha":688,"x_min":0,"x_max":0,"o":"m 338 -15 b 28 325 138 -15 28 90 l 28 711 b 339 1049 28 932 139 1049 l 356 1049 b 660 711 558 1049 660 936 l 660 325 b 351 -15 660 86 535 -15 m 351 71 b 560 343 508 71 560 188 l 560 700 b 354 963 560 839 514 963 l 340 963 b 131 700 176 963 131 856 l 131 343 b 340 71 131 181 188 71 m 349 274 b 375 313 369 274 375 292 l 375 472 l 503 472 l 503 296 b 361 153 503 207 444 153 l 335 153 b 189 303 236 153 189 221 l 189 719 b 331 883 189 825 232 883 l 363 883 b 501 731 438 883 501 851 l 501 615 l 372 615 l 372 721 b 347 763 372 747 368 763 b 321 719 325 763 321 747 l 321 313 b 349 274 321 290 326 274 "},"™":{"ha":458,"x_min":0,"x_max":0,"o":"m 201 1033 l 300 1033 l 322 861 l 343 1033 l 442 1033 l 442 646 l 369 646 l 369 871 l 338 646 l 304 646 l 274 871 l 274 646 l 201 646 m 183 953 l 140 953 l 140 646 l 51 646 l 51 953 l 8 953 l 8 1033 l 183 1033 "},"´":{"ha":475,"x_min":0,"x_max":0,"o":"m 201 968 l 326 968 l 271 788 l 149 788 "},"¨":{"ha":475,"x_min":0,"x_max":0,"o":"m 222 788 l 99 788 l 99 924 l 222 924 m 379 788 l 256 788 l 256 924 l 379 924 "},"Æ":{"ha":675,"x_min":0,"x_max":0,"o":"m 300 0 l 300 200 l 181 200 l 144 0 l -6 0 l 190 1033 l 651 1033 l 651 883 l 457 883 l 457 613 l 610 613 l 610 456 l 457 456 l 457 157 l 661 157 l 661 0 m 300 353 l 300 861 l 208 353 "},"Ø":{"ha":485,"x_min":0,"x_max":0,"o":"m 458 211 b 260 -14 458 85 388 -14 l 231 -14 b 108 35 165 -14 126 14 l 93 0 l -1 0 l 42 113 b 26 211 31 139 26 172 l 26 807 b 226 1043 26 949 81 1043 l 258 1043 b 379 1000 319 1043 353 1024 l 392 1033 l 486 1033 l 443 918 b 458 808 453 886 458 849 m 243 890 b 182 813 194 890 182 864 l 182 456 l 304 811 l 304 814 b 243 890 304 865 283 890 m 243 146 b 304 214 293 146 304 181 l 304 576 l 182 224 l 182 213 b 243 146 182 181 194 146 "},"¥":{"ha":460,"x_min":0,"x_max":0,"o":"m 308 0 l 151 0 l 151 319 l 10 319 l 10 431 l 151 431 l 151 471 l 10 471 l 10 581 l 133 581 l 6 1033 l 160 1033 l 231 682 l 301 1033 l 442 1033 l 324 581 l 450 581 l 450 471 l 308 471 l 308 431 l 450 431 l 450 319 l 308 319 "},"ª":{"ha":258,"x_min":0,"x_max":0,"o":"m 232 738 b 243 725 232 729 236 725 l 258 725 l 258 638 l 175 638 b 144 689 154 638 146 651 b 72 633 133 665 107 633 l 71 633 b 11 708 33 633 11 668 l 11 783 b 65 874 11 833 28 853 l 133 908 b 143 925 140 913 143 918 l 143 936 b 124 961 143 953 136 961 l 122 961 b 103 936 110 961 103 953 l 103 910 l 17 910 l 17 951 b 113 1039 17 994 28 1039 l 129 1039 b 232 951 218 1039 232 1000 m 143 832 b 117 814 133 828 124 821 b 104 776 107 804 104 797 l 104 742 b 122 715 104 724 110 715 b 143 744 136 715 143 725 "},"º":{"ha":271,"x_min":0,"x_max":0,"o":"m 124 633 b 17 751 53 633 17 678 l 17 918 b 124 1039 17 1000 57 1039 l 146 1039 b 254 922 213 1039 254 1000 l 254 751 b 146 633 254 681 218 633 m 113 751 b 135 722 113 732 119 722 b 157 751 150 722 157 732 l 157 928 b 135 957 157 947 150 957 b 113 928 119 957 113 947 "},"æ":{"ha":625,"x_min":0,"x_max":0,"o":"m 251 82 b 122 -4 229 43 188 -4 l 118 -4 b 21 113 56 -4 21 53 l 21 257 b 92 407 21 331 38 374 b 221 474 125 429 200 463 b 239 506 236 483 239 485 l 239 586 b 203 635 239 624 229 635 l 200 635 b 163 588 171 635 163 621 l 163 475 l 29 475 l 29 614 b 186 756 29 669 46 756 l 211 756 b 315 715 288 756 308 725 b 417 758 322 726 351 758 l 440 758 b 603 572 556 758 603 694 l 603 351 l 382 351 l 382 185 b 422 129 382 151 390 129 b 460 183 449 129 460 151 l 460 301 l 603 301 l 603 178 b 435 -12 603 38 524 -12 l 411 -12 b 251 82 296 -12 263 46 m 239 347 b 186 310 222 338 201 325 b 167 250 171 294 167 279 l 167 178 b 201 129 167 146 178 129 b 239 185 226 129 239 147 m 382 482 l 464 482 l 464 575 b 424 633 464 607 458 633 b 382 575 386 633 382 607 "},"ø":{"ha":425,"x_min":0,"x_max":0,"o":"m 24 565 b 197 758 24 689 86 758 l 228 758 b 340 718 276 758 314 744 l 354 747 l 439 747 l 392 643 b 401 571 399 622 401 599 l 401 181 b 228 -12 401 81 342 -12 l 197 -12 b 86 31 143 -12 110 4 l 72 0 l -12 0 l 35 103 b 24 181 25 126 24 153 m 258 564 b 213 621 258 607 244 621 b 167 564 183 621 167 607 l 167 350 l 258 558 m 213 129 b 258 188 246 129 258 154 l 258 390 l 167 186 b 213 129 167 151 181 129 "},"¿":{"ha":411,"x_min":0,"x_max":0,"o":"m 288 535 l 288 368 b 240 182 288 279 285 256 l 200 114 b 169 -21 171 67 169 33 l 169 -96 b 208 -150 169 -135 176 -150 b 246 -96 240 -150 246 -135 l 246 71 l 393 71 l 393 -96 b 224 -299 393 -212 364 -299 l 193 -299 b 11 -106 54 -299 11 -226 l 11 -3 b 74 183 11 67 26 114 l 118 247 b 164 414 158 307 164 332 l 164 535 m 154 747 l 296 747 l 296 569 l 154 569 "},"¡":{"ha":208,"x_min":0,"x_max":0,"o":"m 29 747 l 171 747 l 171 569 l 29 569 m 14 -286 l 74 535 l 125 535 l 183 -286 "},"ƒ":{"ha":361,"x_min":0,"x_max":0,"o":"m 90 518 l 15 518 l 15 661 l 97 661 l 110 924 b 254 1033 114 990 140 1033 l 343 1033 l 343 897 l 294 897 b 256 853 268 896 257 888 l 246 661 l 343 661 l 343 518 l 240 518 l 204 -261 l 56 -261 "},"«":{"ha":346,"x_min":0,"x_max":0,"o":"m 193 171 l 85 171 l 19 360 l 19 435 l 85 621 l 193 621 l 126 397 m 333 171 l 224 171 l 160 397 l 224 621 l 335 621 l 275 397 "},"»":{"ha":346,"x_min":0,"x_max":0,"o":"m 221 397 l 151 621 l 263 621 l 326 432 l 326 360 l 260 171 l 151 171 m 71 397 l 11 621 l 121 621 l 186 397 l 121 171 l 11 171 "},"…":{"ha":543,"x_min":0,"x_max":0,"o":"m 521 178 l 521 0 l 375 0 l 375 178 m 199 178 l 344 178 l 344 0 l 199 0 m 22 0 l 22 178 l 168 178 l 168 0 "}," ":{"ha":142,"x_min":0,"x_max":0,"o":""},"À":{"ha":444,"x_min":0,"x_max":0,"o":"m 274 194 l 158 194 l 139 0 l -1 0 l 125 1033 l 311 1033 l 446 0 l 294 0 m 175 349 l 257 349 l 215 731 m 156 1074 l 94 1225 l 225 1225 l 283 1074 "},"Ã":{"ha":444,"x_min":0,"x_max":0,"o":"m 274 194 l 158 194 l 139 0 l -1 0 l 125 1033 l 311 1033 l 446 0 l 294 0 m 175 349 l 257 349 l 215 731 m 353 1156 b 294 1076 353 1107 332 1076 l 293 1076 b 214 1100 267 1076 246 1085 b 182 1113 199 1107 192 1113 b 172 1100 175 1113 172 1108 l 172 1074 l 83 1074 l 83 1139 b 143 1217 83 1193 106 1217 l 144 1217 b 219 1194 168 1217 186 1211 b 256 1179 236 1185 246 1179 b 264 1192 261 1179 264 1183 l 264 1219 l 353 1219 "},"Õ":{"ha":485,"x_min":0,"x_max":0,"o":"m 457 231 b 257 -12 457 86 408 -12 l 231 -12 b 28 231 81 -12 28 86 l 28 806 b 229 1043 28 950 81 1043 l 256 1043 b 457 807 408 1043 457 949 m 297 814 b 243 893 297 867 279 893 b 188 814 203 893 188 868 l 188 219 b 244 140 188 175 200 140 b 297 219 288 140 297 175 m 378 1156 b 319 1076 378 1107 357 1076 l 318 1076 b 239 1100 292 1076 271 1085 b 207 1113 224 1107 217 1113 b 197 1100 200 1113 197 1108 l 197 1074 l 108 1074 l 108 1139 b 168 1217 108 1193 131 1217 l 169 1217 b 244 1194 193 1217 211 1211 b 281 1179 261 1185 271 1179 b 289 1192 286 1179 289 1183 l 289 1219 l 378 1219 "},"Œ":{"ha":675,"x_min":0,"x_max":0,"o":"m 28 808 b 176 1043 28 951 76 1043 l 181 1043 b 307 968 265 1043 288 994 l 307 1033 l 651 1033 l 651 883 l 457 883 l 457 613 l 610 613 l 610 456 l 457 456 l 457 157 l 661 157 l 661 0 l 307 0 l 307 71 b 178 -14 286 31 251 -14 l 174 -14 b 28 222 92 -14 28 57 m 300 803 b 246 890 300 857 289 890 b 190 803 203 890 190 857 l 190 232 b 246 144 190 178 203 144 b 300 232 289 144 300 178 "},"œ":{"ha":643,"x_min":0,"x_max":0,"o":"m 400 351 l 400 181 b 440 128 400 149 408 128 b 478 181 467 128 478 149 l 478 301 l 621 301 l 621 175 b 451 -14 621 36 543 -14 l 428 -14 b 317 29 351 -14 326 18 b 214 -14 310 19 276 -14 l 190 -14 b 24 181 69 -14 24 82 l 24 567 b 189 758 24 688 83 758 l 211 758 b 326 718 289 758 315 731 b 432 758 336 731 367 758 l 458 758 b 621 593 569 758 621 693 l 621 351 m 174 192 b 215 133 174 163 182 133 b 257 192 250 133 257 165 l 257 561 b 215 619 257 599 247 619 b 174 561 183 619 174 599 m 400 482 l 482 482 l 482 571 b 442 632 482 604 476 632 b 400 575 404 632 400 607 "},"–":{"ha":424,"x_min":0,"x_max":0,"o":"m 401 471 l 401 363 l 22 363 l 22 471 "},"—":{"ha":643,"x_min":0,"x_max":0,"o":"m 621 471 l 621 363 l 22 363 l 22 471 "},"“":{"ha":343,"x_min":0,"x_max":0,"o":"m 128 1033 b 103 915 118 1007 107 958 l 158 915 l 158 760 l 21 760 l 21 874 b 51 1033 21 944 39 1004 m 292 1033 b 267 915 282 1007 271 958 l 322 915 l 322 760 l 185 760 l 185 874 b 215 1033 185 944 203 1004 "},"”":{"ha":343,"x_min":0,"x_max":0,"o":"m 215 760 b 240 878 225 786 236 835 l 185 878 l 185 1033 l 322 1033 l 322 919 b 292 760 322 849 304 789 m 51 760 b 76 878 61 786 72 835 l 21 878 l 21 1033 l 158 1033 l 158 919 b 128 760 158 849 140 789 "},"‘":{"ha":179,"x_min":0,"x_max":0,"o":"m 103 915 l 158 915 l 158 760 l 21 760 l 21 874 b 51 1033 21 944 39 1004 l 128 1033 b 103 915 118 1007 107 958 "},"’":{"ha":179,"x_min":0,"x_max":0,"o":"m 51 760 b 76 878 61 786 72 835 l 21 878 l 21 1033 l 158 1033 l 158 919 b 128 760 158 849 140 789 "},"÷":{"ha":476,"x_min":0,"x_max":0,"o":"m 454 479 l 454 361 l 22 361 l 22 479 m 307 526 l 169 526 l 169 661 l 307 661 m 307 172 l 169 172 l 169 308 l 307 308 "},"ÿ":{"ha":396,"x_min":0,"x_max":0,"o":"m -1 747 l 143 747 l 201 290 l 257 747 l 399 747 l 249 -150 b 157 -261 236 -224 211 -261 l 17 -261 l 17 -119 l 81 -119 b 114 -82 107 -119 110 -108 l 118 -50 b 115 22 122 -18 119 -4 m 183 788 l 60 788 l 60 924 l 183 924 m 340 788 l 217 788 l 217 924 l 340 924 "},"Ÿ":{"ha":425,"x_min":0,"x_max":0,"o":"m 293 429 l 293 0 l 136 0 l 136 431 l -6 1033 l 147 1033 l 219 647 l 289 1033 l 431 1033 m 199 1074 l 74 1074 l 74 1211 l 199 1211 m 360 1074 l 235 1074 l 235 1211 l 360 1211 "},"⁄":{"ha":458,"x_min":0,"x_max":0,"o":"m 456 1033 l 106 0 l 3 0 l 354 1033 "},"€":{"ha":529,"x_min":0,"x_max":0,"o":"m 10 518 l 86 518 l 86 558 l 10 558 l 10 668 l 86 668 l 86 836 b 276 1043 86 939 133 1043 l 313 1043 b 506 826 483 1043 506 929 l 506 704 l 353 704 l 353 825 b 299 893 353 869 339 893 b 246 825 258 893 246 869 l 246 668 l 429 668 l 429 558 l 246 558 l 246 518 l 432 518 l 432 408 l 246 408 l 246 211 b 299 140 246 164 264 140 b 353 210 338 140 353 167 l 353 369 l 506 369 l 506 213 b 317 -12 506 99 467 -12 l 283 -12 b 86 207 121 -12 86 97 l 86 408 l 10 408 "},"‹":{"ha":213,"x_min":0,"x_max":0,"o":"m 200 171 l 81 171 l 19 360 l 19 435 l 81 621 l 201 621 l 135 397 "},"›":{"ha":210,"x_min":0,"x_max":0,"o":"m 14 621 l 132 621 l 190 432 l 190 358 l 132 171 l 11 171 l 74 394 "},"ﬁ":{"ha":549,"x_min":0,"x_max":0,"o":"m 338 896 l 276 896 b 246 860 250 896 246 886 l 246 747 l 338 747 l 338 606 l 246 606 l 246 0 l 97 0 l 97 606 l 8 606 l 8 747 l 97 747 l 97 938 b 203 1033 97 978 119 1033 l 338 1033 m 521 0 l 372 0 l 372 747 l 521 747 m 521 788 l 372 788 l 372 947 l 521 947 "},"ﬂ":{"ha":549,"x_min":0,"x_max":0,"o":"m 338 896 l 276 896 b 246 860 250 896 246 886 l 246 747 l 338 747 l 338 606 l 246 606 l 246 0 l 97 0 l 97 606 l 8 606 l 8 747 l 97 747 l 97 938 b 203 1033 97 978 119 1033 l 338 1033 m 521 0 l 372 0 l 372 1033 l 521 1033 "},"‡":{"ha":339,"x_min":0,"x_max":0,"o":"m 10 206 l 10 353 l 99 353 l 99 682 l 10 682 l 10 829 l 99 829 l 99 1033 l 242 1033 l 242 829 l 329 829 l 329 682 l 242 682 l 242 353 l 329 353 l 329 206 l 242 206 l 242 0 l 99 0 l 99 206 "},"·":{"ha":190,"x_min":0,"x_max":0,"o":"m 168 351 l 22 351 l 22 529 l 168 529 "},"‚":{"ha":179,"x_min":0,"x_max":0,"o":"m 76 0 l 21 0 l 21 156 l 158 156 l 158 42 b 128 -118 158 -29 140 -89 l 51 -118 b 76 0 61 -92 72 -43 "},"„":{"ha":343,"x_min":0,"x_max":0,"o":"m 51 -118 b 76 0 61 -92 72 -43 l 21 0 l 21 156 l 158 156 l 158 42 b 128 -118 158 -29 140 -89 m 215 -118 b 240 0 225 -92 236 -43 l 185 0 l 185 156 l 322 156 l 322 42 b 292 -118 322 -29 304 -89 "},"‰":{"ha":951,"x_min":0,"x_max":0,"o":"m 19 906 b 147 1042 19 993 69 1042 l 174 1042 b 299 906 251 1042 299 990 l 299 706 b 174 571 299 624 253 571 l 147 571 b 19 706 74 571 19 617 m 782 -6 b 653 129 706 -6 653 40 l 653 329 b 782 464 653 417 704 464 l 807 464 b 932 329 885 464 932 414 l 932 129 b 808 -6 932 47 886 -6 m 476 -6 b 349 129 403 -6 349 40 l 349 329 b 476 464 349 417 399 464 l 501 464 b 626 329 579 464 626 414 l 626 129 b 503 -6 626 47 582 -6 m 563 1033 l 190 0 l 88 0 l 460 1033 m 486 100 b 514 132 507 100 514 115 l 514 328 b 486 360 514 346 507 360 b 461 328 468 360 461 346 l 461 132 b 486 100 461 115 468 100 m 185 904 b 158 936 185 921 179 936 b 132 904 140 936 132 921 l 132 708 b 158 676 132 690 140 676 b 185 708 179 676 185 690 m 792 100 b 818 132 813 100 818 115 l 818 328 b 792 360 818 346 813 360 b 767 328 774 360 767 346 l 767 132 b 792 100 767 115 774 100 "},"Â":{"ha":444,"x_min":0,"x_max":0,"o":"m 274 194 l 158 194 l 139 0 l -1 0 l 125 1033 l 311 1033 l 446 0 l 294 0 m 175 349 l 257 349 l 215 731 m 367 1074 l 254 1074 l 217 1140 l 179 1074 l 68 1074 l 156 1225 l 279 1225 "},"Ê":{"ha":411,"x_min":0,"x_max":0,"o":"m 389 1033 l 389 883 l 189 883 l 189 613 l 346 613 l 346 456 l 189 456 l 189 157 l 397 157 l 397 0 l 32 0 l 32 1033 m 363 1074 l 250 1074 l 213 1140 l 175 1074 l 64 1074 l 151 1225 l 275 1225 "},"Á":{"ha":444,"x_min":0,"x_max":0,"o":"m 274 194 l 158 194 l 139 0 l -1 0 l 125 1033 l 311 1033 l 446 0 l 294 0 m 175 349 l 257 349 l 215 731 m 213 1225 l 343 1225 l 282 1074 l 154 1074 "},"Ë":{"ha":411,"x_min":0,"x_max":0,"o":"m 389 1033 l 389 883 l 189 883 l 189 613 l 346 613 l 346 456 l 189 456 l 189 157 l 397 157 l 397 0 l 32 0 l 32 1033 m 194 1074 l 69 1074 l 69 1211 l 194 1211 m 356 1074 l 231 1074 l 231 1211 l 356 1211 "},"È":{"ha":411,"x_min":0,"x_max":0,"o":"m 389 1033 l 389 883 l 189 883 l 189 613 l 346 613 l 346 456 l 189 456 l 189 157 l 397 157 l 397 0 l 32 0 l 32 1033 m 156 1074 l 94 1225 l 225 1225 l 283 1074 "},"Í":{"ha":221,"x_min":0,"x_max":0,"o":"m 189 0 l 32 0 l 32 1033 l 189 1033 m 106 1225 l 236 1225 l 175 1074 l 47 1074 "},"Î":{"ha":221,"x_min":0,"x_max":0,"o":"m 189 0 l 32 0 l 32 1033 l 189 1033 m 260 1074 l 147 1074 l 110 1140 l 72 1074 l -39 1074 l 49 1225 l 172 1225 "},"Ï":{"ha":221,"x_min":0,"x_max":0,"o":"m 189 0 l 32 0 l 32 1033 l 189 1033 m 92 1074 l -33 1074 l -33 1211 l 92 1211 m 253 1074 l 128 1074 l 128 1211 l 253 1211 "},"Ì":{"ha":221,"x_min":0,"x_max":0,"o":"m 189 0 l 32 0 l 32 1033 l 189 1033 m 46 1074 l -15 1225 l 115 1225 l 174 1074 "},"Ó":{"ha":485,"x_min":0,"x_max":0,"o":"m 457 231 b 257 -12 457 86 408 -12 l 231 -12 b 28 231 81 -12 28 86 l 28 806 b 229 1043 28 950 81 1043 l 256 1043 b 457 807 408 1043 457 949 m 297 814 b 243 893 297 867 279 893 b 188 814 203 893 188 868 l 188 219 b 244 140 188 175 200 140 b 297 219 288 140 297 175 m 238 1225 l 368 1225 l 307 1074 l 179 1074 "},"Ô":{"ha":485,"x_min":0,"x_max":0,"o":"m 457 231 b 257 -12 457 86 408 -12 l 231 -12 b 28 231 81 -12 28 86 l 28 806 b 229 1043 28 950 81 1043 l 256 1043 b 457 807 408 1043 457 949 m 297 814 b 243 893 297 867 279 893 b 188 814 203 893 188 868 l 188 219 b 244 140 188 175 200 140 b 297 219 288 140 297 175 m 392 1074 l 279 1074 l 242 1140 l 204 1074 l 93 1074 l 181 1225 l 304 1225 "},"Ò":{"ha":485,"x_min":0,"x_max":0,"o":"m 457 231 b 257 -12 457 86 408 -12 l 231 -12 b 28 231 81 -12 28 86 l 28 806 b 229 1043 28 950 81 1043 l 256 1043 b 457 807 408 1043 457 949 m 297 814 b 243 893 297 867 279 893 b 188 814 203 893 188 868 l 188 219 b 244 140 188 175 200 140 b 297 219 288 140 297 175 m 178 1074 l 117 1225 l 247 1225 l 306 1074 "},"Ú":{"ha":479,"x_min":0,"x_max":0,"o":"m 29 1033 l 189 1033 l 189 215 b 239 142 189 171 204 142 b 290 215 276 142 290 169 l 290 1033 l 450 1033 l 450 225 b 253 -12 450 79 392 -12 l 225 -12 b 29 225 86 -12 29 75 m 235 1225 l 365 1225 l 304 1074 l 176 1074 "},"Û":{"ha":479,"x_min":0,"x_max":0,"o":"m 29 1033 l 189 1033 l 189 215 b 239 142 189 171 204 142 b 290 215 276 142 290 169 l 290 1033 l 450 1033 l 450 225 b 253 -12 450 79 392 -12 l 225 -12 b 29 225 86 -12 29 75 m 389 1074 l 276 1074 l 239 1140 l 201 1074 l 90 1074 l 178 1225 l 301 1225 "},"Ù":{"ha":479,"x_min":0,"x_max":0,"o":"m 29 1033 l 189 1033 l 189 215 b 239 142 189 171 204 142 b 290 215 276 142 290 169 l 290 1033 l 450 1033 l 450 225 b 253 -12 450 79 392 -12 l 225 -12 b 29 225 86 -12 29 75 m 178 1074 l 117 1225 l 247 1225 l 306 1074 "},"ı":{"ha":204,"x_min":0,"x_max":0,"o":"m 176 0 l 28 0 l 28 747 l 176 747 "},"ˆ":{"ha":475,"x_min":0,"x_max":0,"o":"m 381 788 l 271 788 l 236 878 l 201 788 l 94 788 l 174 969 l 301 969 "},"˜":{"ha":475,"x_min":0,"x_max":0,"o":"m 372 933 l 372 869 b 314 790 372 821 351 790 l 313 790 b 233 814 286 790 265 799 b 201 826 218 821 211 826 b 192 814 194 826 192 822 l 192 788 l 103 788 l 103 853 b 163 931 103 907 125 931 l 164 931 b 239 908 188 931 206 925 b 275 893 256 899 265 893 b 283 906 281 893 283 897 l 283 933 "},"¯":{"ha":475,"x_min":0,"x_max":0,"o":"m 118 911 l 357 911 l 357 804 l 118 804 "},"˘":{"ha":475,"x_min":0,"x_max":0,"o":"m 242 785 l 238 785 b 97 928 154 785 97 829 l 97 933 l 206 933 l 206 928 b 239 881 206 896 217 881 l 240 881 b 274 928 258 881 274 894 l 274 933 l 378 933 l 378 928 b 242 785 378 829 318 785 "},"˙":{"ha":475,"x_min":0,"x_max":0,"o":"m 311 788 l 163 788 l 163 947 l 311 947 "},"˚":{"ha":475,"x_min":0,"x_max":0,"o":"m 239 782 b 128 894 174 782 128 829 b 239 1004 128 956 176 1004 b 349 894 304 1004 349 956 b 239 782 349 829 304 782 m 239 847 b 282 893 265 847 282 865 b 239 939 282 919 265 939 b 196 893 213 939 196 919 b 239 847 196 865 213 847 "},"¸":{"ha":475,"x_min":0,"x_max":0,"o":"m 213 -261 l 136 -261 l 136 -178 l 189 -178 b 222 -153 211 -178 222 -169 b 189 -126 222 -135 211 -126 l 157 -126 l 157 0 l 233 0 l 233 -56 b 340 -154 299 -56 340 -87 l 340 -158 b 213 -261 340 -229 283 -261 "},"˝":{"ha":475,"x_min":0,"x_max":0,"o":"m 235 788 l 272 964 l 378 964 l 338 788 m 133 964 l 239 964 l 201 788 l 99 788 "},"˛":{"ha":475,"x_min":0,"x_max":0,"o":"m 151 -151 b 243 0 151 -100 189 -54 l 321 0 b 261 -126 275 -62 261 -89 l 261 -132 b 294 -161 261 -151 272 -161 l 321 -161 l 321 -261 l 251 -261 b 151 -172 196 -261 151 -232 "},"ˇ":{"ha":475,"x_min":0,"x_max":0,"o":"m 94 968 l 204 968 l 239 879 l 274 968 l 381 968 l 301 788 l 174 788 "},"¦":{"ha":238,"x_min":0,"x_max":0,"o":"m 175 -182 l 63 -182 l 63 474 l 175 474 m 175 532 l 63 532 l 63 1122 l 175 1122 "},"¼":{"ha":492,"x_min":0,"x_max":0,"o":"m 10 899 l 10 976 b 88 1033 72 976 81 1006 l 171 1033 l 171 563 l 71 563 l 71 899 m 465 1033 l 115 0 l 13 0 l 364 1033 m 222 153 b 346 472 251 224 315 386 l 442 472 l 442 174 l 482 174 l 482 88 l 442 88 l 442 0 l 346 0 l 346 88 l 222 88 m 346 174 l 346 307 b 299 174 339 278 311 201 "},"½":{"ha":554,"x_min":0,"x_max":0,"o":"m 465 1033 l 115 0 l 13 0 l 364 1033 m 10 899 l 10 976 b 88 1033 72 976 81 1006 l 171 1033 l 171 563 l 71 563 l 71 899 m 278 0 l 278 53 b 383 243 278 104 296 133 b 422 340 417 281 422 300 l 422 367 b 401 394 422 385 415 394 b 381 368 388 394 381 386 l 381 285 l 286 285 l 286 371 b 392 479 286 436 310 479 l 413 479 b 528 374 501 479 528 436 l 528 344 b 450 182 528 276 507 242 b 374 83 375 103 374 103 l 451 83 l 451 161 l 542 161 l 542 0 "},"¾":{"ha":556,"x_min":0,"x_max":0,"o":"m 529 1033 l 179 0 l 76 0 l 428 1033 m 18 874 l 18 925 b 126 1042 18 1001 43 1042 l 143 1042 b 251 931 221 1042 251 1008 l 251 892 b 217 819 251 847 233 829 b 260 751 239 808 260 792 l 260 663 b 147 553 260 597 226 553 l 128 553 b 17 657 39 553 17 601 l 17 732 l 114 732 l 114 664 b 135 636 114 646 121 636 b 153 664 150 636 153 646 l 153 732 b 131 760 153 753 149 760 l 85 760 l 85 849 l 128 849 b 153 876 146 849 153 854 l 153 929 b 132 960 153 951 149 960 b 111 929 115 960 111 951 l 111 874 m 286 153 b 410 472 315 224 379 386 l 506 472 l 506 174 l 546 174 l 546 88 l 506 88 l 506 0 l 410 0 l 410 88 l 286 88 m 410 174 l 410 307 b 363 174 403 278 375 201 "},"Ð":{"ha":481,"x_min":0,"x_max":0,"o":"m 35 1033 l 275 1033 b 451 835 410 1033 451 957 l 451 206 b 275 0 451 78 404 0 l 35 0 l 35 465 l -3 465 l -3 597 l 35 597 m 192 150 l 229 150 b 290 231 278 150 290 175 l 290 813 b 236 893 290 872 275 893 l 192 893 l 192 597 l 256 597 l 256 465 l 192 465 "},"×":{"ha":418,"x_min":0,"x_max":0,"o":"m 207 336 l 89 213 l 8 288 l 129 415 l 7 540 l 90 628 l 211 503 l 329 628 l 411 550 l 289 422 l 411 296 l 329 213 "},"Ý":{"ha":425,"x_min":0,"x_max":0,"o":"m 293 429 l 293 0 l 136 0 l 136 431 l -6 1033 l 147 1033 l 219 647 l 289 1033 l 431 1033 m 213 1225 l 343 1225 l 282 1074 l 154 1074 "},"Þ":{"ha":469,"x_min":0,"x_max":0,"o":"m 189 265 l 189 0 l 32 0 l 32 1033 l 189 1033 l 189 822 l 288 822 b 450 650 392 822 450 776 l 450 454 b 289 265 450 328 396 265 m 189 403 l 236 403 b 290 478 285 403 290 435 l 290 614 b 236 685 290 654 285 685 l 189 685 "},"ð":{"ha":436,"x_min":0,"x_max":0,"o":"m 74 874 l 142 908 l 83 1033 l 235 1033 l 265 971 l 364 1022 l 364 914 l 307 885 l 356 786 b 413 546 393 704 413 663 l 413 181 b 235 -12 413 69 350 -12 l 203 -12 b 26 182 76 -12 26 78 l 26 608 b 131 750 26 703 71 750 l 133 750 b 246 683 179 750 213 726 l 182 821 l 74 767 m 260 565 b 218 624 260 603 250 624 b 176 565 190 624 176 604 l 176 188 b 218 129 176 156 186 129 b 260 188 251 129 260 158 "},"ý":{"ha":396,"x_min":0,"x_max":0,"o":"m -1 747 l 143 747 l 201 290 l 257 747 l 399 747 l 249 -150 b 157 -261 236 -224 211 -261 l 17 -261 l 17 -119 l 81 -119 b 114 -82 107 -119 110 -108 l 118 -50 b 115 22 122 -18 119 -4 m 193 968 l 318 968 l 263 788 l 140 788 "},"þ":{"ha":435,"x_min":0,"x_max":0,"o":"m 176 1033 l 176 668 b 297 751 194 699 233 751 l 299 751 b 408 611 375 751 408 690 l 408 142 b 294 -6 408 43 356 -6 l 292 -6 b 176 65 238 -6 203 33 l 176 -261 l 28 -261 l 28 1033 m 176 178 b 218 121 176 139 196 121 b 257 175 246 121 257 142 l 257 565 b 218 619 257 601 244 619 b 176 565 192 619 176 599 "},"Ā":{"ha":444,"x_min":0,"x_max":0,"o":"m 274 194 l 158 194 l 139 0 l -1 0 l 125 1033 l 311 1033 l 446 0 l 294 0 m 175 349 l 257 349 l 215 731 m 97 1193 l 338 1193 l 338 1083 l 97 1083 "},"ā":{"ha":431,"x_min":0,"x_max":0,"o":"m 21 288 b 92 438 21 361 38 404 b 221 504 125 460 200 493 b 239 536 236 514 239 515 l 239 583 b 203 632 239 621 229 632 l 200 632 b 163 585 171 632 163 618 l 163 506 l 29 506 l 29 611 b 186 753 29 667 46 753 l 214 753 b 382 606 357 753 382 683 l 382 161 b 406 138 382 143 385 138 l 432 138 l 432 0 l 290 0 b 242 85 258 0 242 22 b 119 -4 222 50 183 -4 l 115 -4 b 21 113 56 -4 21 53 m 239 378 b 186 340 222 368 201 356 b 167 281 171 325 167 310 l 167 178 b 201 129 167 146 178 129 b 239 185 226 129 239 147 m 82 911 l 321 911 l 321 804 l 82 804 "},"Ă":{"ha":444,"x_min":0,"x_max":0,"o":"m 274 194 l 158 194 l 139 0 l -1 0 l 125 1033 l 311 1033 l 446 0 l 294 0 m 175 349 l 257 349 l 215 731 m 215 1069 b 78 1200 138 1069 78 1115 l 78 1208 l 185 1208 l 185 1203 b 217 1165 185 1178 196 1165 l 218 1165 b 251 1203 239 1165 251 1179 l 251 1208 l 357 1208 l 357 1200 b 219 1069 357 1115 292 1069 "},"ă":{"ha":431,"x_min":0,"x_max":0,"o":"m 21 288 b 92 438 21 361 38 404 b 221 504 125 460 200 493 b 239 536 236 514 239 515 l 239 583 b 203 632 239 621 229 632 l 200 632 b 163 585 171 632 163 618 l 163 506 l 29 506 l 29 611 b 186 753 29 667 46 753 l 214 753 b 382 606 357 753 382 683 l 382 161 b 406 138 382 143 385 138 l 432 138 l 432 0 l 290 0 b 242 85 258 0 242 22 b 119 -4 222 50 183 -4 l 115 -4 b 21 113 56 -4 21 53 m 239 378 b 186 340 222 368 201 356 b 167 281 171 325 167 310 l 167 178 b 201 129 167 146 178 129 b 239 185 226 129 239 147 m 199 785 b 58 928 115 785 58 829 l 58 933 l 167 933 l 167 928 b 200 881 167 896 178 881 l 201 881 b 235 928 219 881 235 894 l 235 933 l 339 933 l 339 928 b 203 785 339 829 279 785 "},"Ą":{"ha":444,"x_min":0,"x_max":0,"o":"m 274 194 l 158 194 l 139 0 l -1 0 l 125 1033 l 311 1033 l 446 0 l 294 0 m 175 349 l 257 349 l 215 731 m 276 -151 b 368 0 276 -100 314 -54 l 446 0 b 386 -126 400 -62 386 -89 l 386 -132 b 419 -161 386 -151 397 -161 l 446 -161 l 446 -261 l 376 -261 b 276 -172 321 -261 276 -232 "},"ą":{"ha":431,"x_min":0,"x_max":0,"o":"m 21 288 b 92 438 21 361 38 404 b 221 504 125 460 200 493 b 239 536 236 514 239 515 l 239 583 b 203 632 239 621 229 632 l 200 632 b 163 585 171 632 163 618 l 163 506 l 29 506 l 29 611 b 186 753 29 667 46 753 l 214 753 b 382 606 357 753 382 683 l 382 161 b 406 138 382 143 385 138 l 432 138 l 432 0 l 290 0 b 242 85 258 0 242 22 b 119 -4 222 50 183 -4 l 115 -4 b 21 113 56 -4 21 53 m 239 378 b 186 340 222 368 201 356 b 167 281 171 325 167 310 l 167 178 b 201 129 167 146 178 129 b 239 185 226 129 239 147 m 263 -151 b 354 0 263 -100 300 -54 l 432 0 b 372 -126 386 -62 372 -89 l 372 -132 b 406 -161 372 -151 383 -161 l 432 -161 l 432 -261 l 363 -261 b 263 -172 307 -261 263 -232 "},"Ć":{"ha":467,"x_min":0,"x_max":0,"o":"m 289 450 l 443 450 l 443 211 b 256 -12 443 100 406 -12 l 221 -12 b 28 206 61 -12 28 101 l 28 836 b 215 1043 28 942 74 1043 l 251 1043 b 443 828 424 1043 443 929 l 443 643 l 289 643 l 289 825 b 236 893 289 869 275 893 b 188 825 197 893 188 871 l 188 211 b 238 140 188 164 204 140 b 289 210 275 140 289 167 m 232 1225 l 363 1225 l 301 1074 l 174 1074 "},"ć":{"ha":413,"x_min":0,"x_max":0,"o":"m 392 335 l 392 167 b 224 -12 392 82 347 -12 l 196 -12 b 24 168 78 -12 24 69 l 24 575 b 201 758 24 692 79 758 l 228 758 b 392 596 351 758 392 688 l 392 463 l 249 463 l 249 564 b 211 626 249 601 246 626 b 174 565 178 626 174 603 l 174 183 b 210 126 174 149 182 126 b 249 182 239 126 249 149 l 249 335 m 203 968 l 328 968 l 272 788 l 150 788 "},"Ĉ":{"ha":467,"x_min":0,"x_max":0,"o":"m 289 450 l 443 450 l 443 211 b 256 -12 443 100 406 -12 l 221 -12 b 28 206 61 -12 28 101 l 28 836 b 215 1043 28 942 74 1043 l 251 1043 b 443 828 424 1043 443 929 l 443 643 l 289 643 l 289 825 b 236 893 289 869 275 893 b 188 825 197 893 188 871 l 188 211 b 238 140 188 164 204 140 b 289 210 275 140 289 167 m 388 1074 l 275 1074 l 238 1140 l 200 1074 l 89 1074 l 176 1225 l 300 1225 "},"ĉ":{"ha":413,"x_min":0,"x_max":0,"o":"m 392 335 l 392 167 b 224 -12 392 82 347 -12 l 196 -12 b 24 168 78 -12 24 69 l 24 575 b 201 758 24 692 79 758 l 228 758 b 392 596 351 758 392 688 l 392 463 l 249 463 l 249 564 b 211 626 249 601 246 626 b 174 565 178 626 174 603 l 174 183 b 210 126 174 149 182 126 b 249 182 239 126 249 149 l 249 335 m 356 788 l 246 788 l 211 878 l 176 788 l 69 788 l 149 969 l 276 969 "},"Ċ":{"ha":467,"x_min":0,"x_max":0,"o":"m 289 450 l 443 450 l 443 211 b 256 -12 443 100 406 -12 l 221 -12 b 28 206 61 -12 28 101 l 28 836 b 215 1043 28 942 74 1043 l 251 1043 b 443 828 424 1043 443 929 l 443 643 l 289 643 l 289 825 b 236 893 289 869 275 893 b 188 825 197 893 188 871 l 188 211 b 238 140 188 164 204 140 b 289 210 275 140 289 167 m 311 1074 l 163 1074 l 163 1233 l 311 1233 "},"ċ":{"ha":413,"x_min":0,"x_max":0,"o":"m 392 335 l 392 167 b 224 -12 392 82 347 -12 l 196 -12 b 24 168 78 -12 24 69 l 24 575 b 201 758 24 692 79 758 l 228 758 b 392 596 351 758 392 688 l 392 463 l 249 463 l 249 564 b 211 626 249 601 246 626 b 174 565 178 626 174 603 l 174 183 b 210 126 174 149 182 126 b 249 182 239 126 249 149 l 249 335 m 285 788 l 136 788 l 136 947 l 285 947 "},"Č":{"ha":467,"x_min":0,"x_max":0,"o":"m 289 450 l 443 450 l 443 211 b 256 -12 443 100 406 -12 l 221 -12 b 28 206 61 -12 28 101 l 28 836 b 215 1043 28 942 74 1043 l 251 1043 b 443 828 424 1043 443 929 l 443 643 l 289 643 l 289 825 b 236 893 289 869 275 893 b 188 825 197 893 188 871 l 188 211 b 238 140 188 164 204 140 b 289 210 275 140 289 167 m 89 1225 l 201 1225 l 239 1158 l 276 1225 l 388 1225 l 300 1074 l 176 1074 "},"č":{"ha":413,"x_min":0,"x_max":0,"o":"m 392 335 l 392 167 b 224 -12 392 82 347 -12 l 196 -12 b 24 168 78 -12 24 69 l 24 575 b 201 758 24 692 79 758 l 228 758 b 392 596 351 758 392 688 l 392 463 l 249 463 l 249 564 b 211 626 249 601 246 626 b 174 565 178 626 174 603 l 174 183 b 210 126 174 149 182 126 b 249 182 239 126 249 149 l 249 335 m 68 968 l 178 968 l 213 879 l 247 968 l 354 968 l 275 788 l 147 788 "},"Ď":{"ha":478,"x_min":0,"x_max":0,"o":"m 32 1033 l 272 1033 b 449 835 407 1033 449 957 l 449 206 b 272 0 449 78 401 0 l 32 0 m 189 150 l 226 150 b 288 231 275 150 288 175 l 288 813 b 233 893 288 872 272 893 l 189 893 m 68 1225 l 181 1225 l 218 1158 l 256 1225 l 367 1225 l 279 1074 l 156 1074 "},"ď":{"ha":432,"x_min":0,"x_max":0,"o":"m 404 1033 l 404 0 l 256 0 l 256 85 b 140 -7 244 54 207 -7 l 139 -7 b 26 151 72 -7 26 57 l 26 607 b 133 751 26 678 57 751 l 136 751 b 256 668 204 751 236 694 l 256 1033 m 256 551 b 214 618 256 590 246 618 b 175 558 188 618 175 599 l 175 189 b 214 129 175 149 188 129 b 256 197 246 129 256 153 m 439 1033 l 551 1033 l 535 833 l 429 833 "},"Đ":{"ha":481,"x_min":0,"x_max":0,"o":"m 35 1033 l 275 1033 b 451 835 410 1033 451 957 l 451 206 b 275 0 451 78 404 0 l 35 0 l 35 465 l -3 465 l -3 597 l 35 597 m 192 150 l 229 150 b 290 231 278 150 290 175 l 290 813 b 236 893 290 872 275 893 l 192 893 l 192 597 l 256 597 l 256 465 l 192 465 "},"đ":{"ha":432,"x_min":0,"x_max":0,"o":"m 147 921 l 457 921 l 457 822 l 147 822 m 404 1033 l 404 0 l 256 0 l 256 85 b 140 -7 244 54 207 -7 l 139 -7 b 26 151 72 -7 26 57 l 26 607 b 133 751 26 678 57 751 l 136 751 b 256 668 204 751 236 694 l 256 1033 m 256 551 b 214 618 256 590 246 618 b 175 558 188 618 175 599 l 175 189 b 214 129 175 149 188 129 b 256 197 246 129 256 153 "},"Ē":{"ha":411,"x_min":0,"x_max":0,"o":"m 389 1033 l 389 883 l 189 883 l 189 613 l 346 613 l 346 456 l 189 456 l 189 157 l 397 157 l 397 0 l 32 0 l 32 1033 m 92 1193 l 332 1193 l 332 1083 l 92 1083 "},"ē":{"ha":410,"x_min":0,"x_max":0,"o":"m 221 757 b 388 571 338 757 388 693 l 388 356 l 167 356 l 167 183 b 207 128 167 150 175 128 b 244 182 233 128 244 150 l 244 306 l 388 306 l 388 175 b 214 -14 388 42 319 -14 l 188 -14 b 24 174 88 -14 24 46 l 24 578 b 193 757 24 679 72 757 m 167 478 l 249 478 l 249 572 b 208 632 249 606 243 632 b 167 572 171 632 167 606 m 89 911 l 328 911 l 328 804 l 89 804 "},"Ĕ":{"ha":411,"x_min":0,"x_max":0,"o":"m 389 1033 l 389 883 l 189 883 l 189 613 l 346 613 l 346 456 l 189 456 l 189 157 l 397 157 l 397 0 l 32 0 l 32 1033 m 213 1069 b 75 1200 135 1069 75 1115 l 75 1208 l 182 1208 l 182 1203 b 214 1165 182 1178 193 1165 l 215 1165 b 249 1203 236 1165 249 1179 l 249 1208 l 354 1208 l 354 1200 b 217 1069 354 1115 289 1069 "},"ĕ":{"ha":410,"x_min":0,"x_max":0,"o":"m 221 757 b 388 571 338 757 388 693 l 388 356 l 167 356 l 167 183 b 207 128 167 150 175 128 b 244 182 233 128 244 150 l 244 306 l 388 306 l 388 175 b 214 -14 388 42 319 -14 l 188 -14 b 24 174 88 -14 24 46 l 24 578 b 193 757 24 679 72 757 m 167 478 l 249 478 l 249 572 b 208 632 249 606 243 632 b 167 572 171 632 167 606 m 206 785 b 65 928 122 785 65 829 l 65 933 l 174 933 l 174 928 b 207 881 174 896 185 881 l 208 881 b 242 928 226 881 242 894 l 242 933 l 346 933 l 346 928 b 210 785 346 829 286 785 "},"Ė":{"ha":411,"x_min":0,"x_max":0,"o":"m 389 1033 l 389 883 l 189 883 l 189 613 l 346 613 l 346 456 l 189 456 l 189 157 l 397 157 l 397 0 l 32 0 l 32 1033 m 288 1074 l 139 1074 l 139 1233 l 288 1233 "},"ė":{"ha":410,"x_min":0,"x_max":0,"o":"m 221 757 b 388 571 338 757 388 693 l 388 356 l 167 356 l 167 183 b 207 128 167 150 175 128 b 244 182 233 128 244 150 l 244 306 l 388 306 l 388 175 b 214 -14 388 42 319 -14 l 188 -14 b 24 174 88 -14 24 46 l 24 578 b 193 757 24 679 72 757 m 167 478 l 249 478 l 249 572 b 208 632 249 606 243 632 b 167 572 171 632 167 606 m 282 788 l 133 788 l 133 947 l 282 947 "},"Ę":{"ha":411,"x_min":0,"x_max":0,"o":"m 389 1033 l 389 883 l 189 883 l 189 613 l 346 613 l 346 456 l 189 456 l 189 157 l 397 157 l 397 0 l 32 0 l 32 1033 m 171 -151 b 263 0 171 -100 208 -54 l 340 0 b 281 -126 294 -62 281 -89 l 281 -132 b 314 -161 281 -151 292 -161 l 340 -161 l 340 -261 l 271 -261 b 171 -172 215 -261 171 -232 "},"ę":{"ha":410,"x_min":0,"x_max":0,"o":"m 317 -4 b 258 -126 272 -61 258 -93 l 258 -132 b 292 -161 258 -151 269 -161 l 318 -161 l 318 -261 l 249 -261 b 149 -172 193 -261 149 -232 l 149 -151 b 225 -14 149 -103 179 -62 l 214 -14 l 188 -14 b 24 174 88 -14 24 46 l 24 578 b 193 757 24 679 72 757 l 221 757 b 388 571 338 757 388 693 l 388 356 l 167 356 l 167 183 b 207 128 167 150 175 128 b 244 182 233 128 244 150 l 244 306 l 388 306 l 388 175 b 317 -4 388 69 343 31 m 167 478 l 249 478 l 249 572 b 208 632 249 606 243 632 b 167 572 171 632 167 606 "},"Ě":{"ha":411,"x_min":0,"x_max":0,"o":"m 389 1033 l 389 883 l 189 883 l 189 613 l 346 613 l 346 456 l 189 456 l 189 157 l 397 157 l 397 0 l 32 0 l 32 1033 m 67 1225 l 179 1225 l 217 1158 l 254 1225 l 365 1225 l 278 1074 l 154 1074 "},"ě":{"ha":410,"x_min":0,"x_max":0,"o":"m 221 757 b 388 571 338 757 388 693 l 388 356 l 167 356 l 167 183 b 207 128 167 150 175 128 b 244 182 233 128 244 150 l 244 306 l 388 306 l 388 175 b 214 -14 388 42 319 -14 l 188 -14 b 24 174 88 -14 24 46 l 24 578 b 193 757 24 679 72 757 m 167 478 l 249 478 l 249 572 b 208 632 249 606 243 632 b 167 572 171 632 167 606 m 65 968 l 175 968 l 210 879 l 244 968 l 351 968 l 272 788 l 144 788 "},"Ĝ":{"ha":474,"x_min":0,"x_max":0,"o":"m 178 -14 b 28 175 85 -14 28 68 l 28 821 b 221 1043 28 936 71 1043 l 251 1043 b 439 811 419 1043 439 933 l 439 706 l 286 706 l 286 822 b 236 893 286 868 275 893 b 188 822 204 893 188 869 l 188 218 b 239 144 188 169 204 144 b 297 211 279 144 297 172 l 297 469 l 226 469 l 226 628 l 446 628 l 446 0 l 357 0 b 331 101 356 6 343 57 b 188 -14 319 67 267 -14 m 388 1074 l 275 1074 l 238 1140 l 200 1074 l 89 1074 l 176 1225 l 300 1225 "},"ĝ":{"ha":433,"x_min":0,"x_max":0,"o":"m 257 89 b 135 -7 235 40 196 -7 b 26 132 75 -7 26 49 l 26 579 b 136 751 26 689 64 751 b 260 661 201 751 233 710 l 260 747 l 406 747 l 406 -121 b 231 -271 406 -175 392 -271 l 197 -271 b 32 -143 63 -271 32 -210 l 32 -35 l 175 -35 l 175 -101 b 213 -144 175 -129 185 -144 l 218 -144 b 257 -101 250 -144 257 -129 m 257 565 b 215 619 257 597 247 619 b 176 565 188 619 176 597 l 176 186 b 217 131 176 153 189 131 b 257 188 243 131 257 153 m 358 788 l 249 788 l 214 878 l 179 788 l 72 788 l 151 969 l 279 969 "},"Ğ":{"ha":474,"x_min":0,"x_max":0,"o":"m 178 -14 b 28 175 85 -14 28 68 l 28 821 b 221 1043 28 936 71 1043 l 251 1043 b 439 811 419 1043 439 933 l 439 706 l 286 706 l 286 822 b 236 893 286 868 275 893 b 188 822 204 893 188 869 l 188 218 b 239 144 188 169 204 144 b 297 211 279 144 297 172 l 297 469 l 226 469 l 226 628 l 446 628 l 446 0 l 357 0 b 331 101 356 6 343 57 b 188 -14 319 67 267 -14 m 236 1069 b 99 1200 158 1069 99 1115 l 99 1208 l 206 1208 l 206 1203 b 238 1165 206 1178 217 1165 l 239 1165 b 272 1203 260 1165 272 1179 l 272 1208 l 378 1208 l 378 1200 b 240 1069 378 1115 313 1069 "},"ğ":{"ha":433,"x_min":0,"x_max":0,"o":"m 257 89 b 135 -7 235 40 196 -7 b 26 132 75 -7 26 49 l 26 579 b 136 751 26 689 64 751 b 260 661 201 751 233 710 l 260 747 l 406 747 l 406 -121 b 231 -271 406 -175 392 -271 l 197 -271 b 32 -143 63 -271 32 -210 l 32 -35 l 175 -35 l 175 -101 b 213 -144 175 -129 185 -144 l 218 -144 b 257 -101 250 -144 257 -129 m 257 565 b 215 619 257 597 247 619 b 176 565 188 619 176 597 l 176 186 b 217 131 176 153 189 131 b 257 188 243 131 257 153 m 214 785 b 74 928 131 785 74 829 l 74 933 l 182 933 l 182 928 b 215 881 182 896 193 881 l 217 881 b 250 928 235 881 250 894 l 250 933 l 354 933 l 354 928 b 218 785 354 829 294 785 "},"Ġ":{"ha":474,"x_min":0,"x_max":0,"o":"m 178 -14 b 28 175 85 -14 28 68 l 28 821 b 221 1043 28 936 71 1043 l 251 1043 b 439 811 419 1043 439 933 l 439 706 l 286 706 l 286 822 b 236 893 286 868 275 893 b 188 822 204 893 188 869 l 188 218 b 239 144 188 169 204 144 b 297 211 279 144 297 172 l 297 469 l 226 469 l 226 628 l 446 628 l 446 0 l 357 0 b 331 101 356 6 343 57 b 188 -14 319 67 267 -14 m 311 1074 l 163 1074 l 163 1233 l 311 1233 "},"ġ":{"ha":433,"x_min":0,"x_max":0,"o":"m 257 89 b 135 -7 235 40 196 -7 b 26 132 75 -7 26 49 l 26 579 b 136 751 26 689 64 751 b 260 661 201 751 233 710 l 260 747 l 406 747 l 406 -121 b 231 -271 406 -175 392 -271 l 197 -271 b 32 -143 63 -271 32 -210 l 32 -35 l 175 -35 l 175 -101 b 213 -144 175 -129 185 -144 l 218 -144 b 257 -101 250 -144 257 -129 m 257 565 b 215 619 257 597 247 619 b 176 565 188 619 176 597 l 176 186 b 217 131 176 153 189 131 b 257 188 243 131 257 153 m 289 788 l 140 788 l 140 947 l 289 947 "},"Ģ":{"ha":474,"x_min":0,"x_max":0,"o":"m 178 -14 b 28 175 85 -14 28 68 l 28 821 b 221 1043 28 936 71 1043 l 251 1043 b 439 811 419 1043 439 933 l 439 706 l 286 706 l 286 822 b 236 893 286 868 275 893 b 188 822 204 893 188 869 l 188 218 b 239 144 188 169 204 144 b 297 211 279 144 297 172 l 297 469 l 226 469 l 226 628 l 446 628 l 446 0 l 357 0 b 331 101 356 6 343 57 b 188 -14 319 67 267 -14 m 211 -272 b 229 -182 218 -254 228 -221 l 176 -182 l 176 -40 l 304 -40 l 304 -129 b 274 -272 304 -207 283 -251 "},"ģ":{"ha":433,"x_min":0,"x_max":0,"o":"m 257 89 b 135 -7 235 40 196 -7 b 26 132 75 -7 26 49 l 26 579 b 136 751 26 689 64 751 b 260 661 201 751 233 710 l 260 747 l 406 747 l 406 -121 b 231 -271 406 -175 392 -271 l 197 -271 b 32 -143 63 -271 32 -210 l 32 -35 l 175 -35 l 175 -101 b 213 -144 175 -129 185 -144 l 218 -144 b 257 -101 250 -144 257 -129 m 257 565 b 215 619 257 597 247 619 b 176 565 188 619 176 597 l 176 186 b 217 131 176 153 189 131 b 257 188 243 131 257 153 m 244 1019 b 226 928 238 999 226 967 l 278 928 l 278 788 l 149 788 l 149 874 b 176 1019 149 953 167 999 "},"Ĥ":{"ha":485,"x_min":0,"x_max":0,"o":"m 189 0 l 32 0 l 32 1033 l 189 1033 l 189 619 l 296 619 l 296 1033 l 453 1033 l 453 0 l 296 0 l 296 454 l 189 454 m 392 1074 l 279 1074 l 242 1140 l 204 1074 l 93 1074 l 181 1225 l 304 1225 "},"ĥ":{"ha":435,"x_min":0,"x_max":0,"o":"m 28 1033 l 176 1033 l 176 663 b 300 751 203 707 243 751 l 307 751 b 407 636 386 751 407 685 l 407 0 l 257 0 l 257 560 b 218 615 257 594 247 615 b 176 554 186 615 176 594 l 176 0 l 28 0 m 343 1074 l 231 1074 l 193 1140 l 156 1074 l 44 1074 l 132 1225 l 256 1225 "},"Ħ":{"ha":485,"x_min":0,"x_max":0,"o":"m -7 885 l 492 885 l 492 768 l -7 768 m 189 0 l 32 0 l 32 1033 l 189 1033 l 189 619 l 296 619 l 296 1033 l 453 1033 l 453 0 l 296 0 l 296 454 l 189 454 "},"ħ":{"ha":435,"x_min":0,"x_max":0,"o":"m -25 921 l 285 921 l 285 822 l -25 822 m 28 1033 l 176 1033 l 176 663 b 300 751 203 707 243 751 l 307 751 b 407 636 386 751 407 685 l 407 0 l 257 0 l 257 560 b 218 615 257 594 247 615 b 176 554 186 615 176 594 l 176 0 l 28 0 "},"Ĩ":{"ha":221,"x_min":0,"x_max":0,"o":"m 189 0 l 32 0 l 32 1033 l 189 1033 m 246 1156 b 188 1076 246 1107 225 1076 l 186 1076 b 107 1100 160 1076 139 1085 b 75 1113 92 1107 85 1113 b 65 1100 68 1113 65 1108 l 65 1074 l -24 1074 l -24 1139 b 36 1217 -24 1193 -1 1217 l 38 1217 b 113 1194 61 1217 79 1211 b 149 1179 129 1185 139 1179 b 157 1192 154 1179 157 1183 l 157 1219 l 246 1219 "},"ĩ":{"ha":204,"x_min":0,"x_max":0,"o":"m 235 928 l 235 875 b 175 790 235 824 213 790 l 174 790 b 100 813 150 790 132 797 b 71 822 83 819 78 822 b 60 807 64 822 60 817 l 60 788 l -25 788 l -25 840 b 36 925 -25 894 -1 925 l 38 925 b 106 906 56 925 71 921 b 142 893 121 899 132 893 b 150 906 147 893 150 897 l 150 928 m 176 0 l 28 0 l 28 747 l 176 747 "},"Ī":{"ha":221,"x_min":0,"x_max":0,"o":"m 189 0 l 32 0 l 32 1033 l 189 1033 m -10 1193 l 231 1193 l 231 1083 l -10 1083 "},"ī":{"ha":204,"x_min":0,"x_max":0,"o":"m -7 913 l 211 913 l 211 804 l -7 804 m 176 0 l 28 0 l 28 747 l 176 747 "},"Ĭ":{"ha":221,"x_min":0,"x_max":0,"o":"m 189 0 l 32 0 l 32 1033 l 189 1033 m 108 1069 b -29 1200 31 1069 -29 1115 l -29 1208 l 78 1208 l 78 1203 b 110 1165 78 1178 89 1165 l 111 1165 b 144 1203 132 1165 144 1179 l 144 1208 l 250 1208 l 250 1200 b 113 1069 250 1115 185 1069 "},"ĭ":{"ha":204,"x_min":0,"x_max":0,"o":"m 100 785 b -29 907 17 785 -29 831 l -29 933 l 76 933 l 76 919 b 101 882 76 894 85 882 l 103 882 b 128 919 119 882 128 894 l 128 933 l 233 933 l 233 907 b 104 785 233 831 182 785 m 176 0 l 28 0 l 28 747 l 176 747 "},"Į":{"ha":221,"x_min":0,"x_max":0,"o":"m 189 0 l 32 0 l 32 1033 l 189 1033 m 19 -151 b 111 0 19 -100 57 -54 l 189 0 b 129 -126 143 -62 129 -89 l 129 -132 b 163 -161 129 -151 140 -161 l 189 -161 l 189 -261 l 119 -261 b 19 -172 64 -261 19 -232 "},"į":{"ha":204,"x_min":0,"x_max":0,"o":"m 176 0 l 28 0 l 28 747 l 176 747 m 176 788 l 28 788 l 28 947 l 176 947 m 7 -151 b 99 0 7 -100 44 -54 l 176 0 b 117 -126 131 -62 117 -89 l 117 -132 b 150 -161 117 -151 128 -161 l 176 -161 l 176 -261 l 107 -261 b 7 -172 51 -261 7 -232 "},"İ":{"ha":221,"x_min":0,"x_max":0,"o":"m 189 0 l 32 0 l 32 1033 l 189 1033 m 183 1074 l 35 1074 l 35 1233 l 183 1233 "},"Ĳ":{"ha":658,"x_min":0,"x_max":0,"o":"m 189 0 l 32 0 l 32 1033 l 189 1033 m 390 456 l 390 201 b 428 144 390 164 399 144 l 433 144 b 469 201 463 144 469 169 l 469 1033 l 629 1033 l 629 189 b 451 -8 629 54 561 -8 l 408 -8 b 236 179 307 -8 236 38 l 236 456 "},"ĳ":{"ha":404,"x_min":0,"x_max":0,"o":"m 176 0 l 28 0 l 28 747 l 176 747 m 176 788 l 28 788 l 28 947 l 176 947 m 376 788 l 228 788 l 228 947 l 376 947 m 199 -119 b 228 -86 218 -119 228 -108 l 228 747 l 376 747 l 376 -153 b 281 -261 376 -243 326 -261 l 129 -261 l 129 -119 "},"Ĵ":{"ha":443,"x_min":0,"x_max":0,"o":"m 175 456 l 175 201 b 213 144 175 164 183 144 l 218 144 b 254 201 247 144 254 169 l 254 1033 l 414 1033 l 414 189 b 236 -8 414 54 346 -8 l 193 -8 b 21 179 92 -8 21 38 l 21 456 m 481 1074 l 368 1074 l 331 1140 l 293 1074 l 182 1074 l 269 1225 l 393 1225 "},"ĵ":{"ha":206,"x_min":0,"x_max":0,"o":"m 233 785 l 132 785 l 103 875 l 72 785 l -26 785 l 39 967 l 167 967 m 0 -119 b 29 -86 19 -119 29 -108 l 29 747 l 178 747 l 178 -153 b 82 -261 178 -243 128 -261 l -69 -261 l -69 -119 "},"Ķ":{"ha":475,"x_min":0,"x_max":0,"o":"m 189 0 l 32 0 l 32 1033 l 189 1033 l 189 619 l 313 1033 l 465 1033 l 319 553 l 481 0 l 319 0 l 189 449 m 221 -272 b 239 -182 228 -254 238 -221 l 186 -182 l 186 -40 l 314 -40 l 314 -129 b 283 -272 314 -207 293 -251 "},"ķ":{"ha":442,"x_min":0,"x_max":0,"o":"m 292 747 l 440 747 l 300 428 l 450 0 l 296 0 l 176 346 l 176 0 l 28 0 l 28 1033 l 176 1033 l 176 475 m 207 -272 b 225 -182 214 -254 224 -221 l 172 -182 l 172 -40 l 300 -40 l 300 -129 b 269 -272 300 -207 279 -251 "},"Ĺ":{"ha":394,"x_min":0,"x_max":0,"o":"m 189 1033 l 189 160 l 381 160 l 381 0 l 32 0 l 32 1033 m 106 1225 l 236 1225 l 175 1074 l 47 1074 "},"ĺ":{"ha":204,"x_min":0,"x_max":0,"o":"m 176 0 l 28 0 l 28 1033 l 176 1033 m 99 1225 l 229 1225 l 168 1074 l 40 1074 "},"Ļ":{"ha":394,"x_min":0,"x_max":0,"o":"m 189 1033 l 189 160 l 381 160 l 381 0 l 32 0 l 32 1033 m 179 -272 b 197 -182 186 -254 196 -221 l 144 -182 l 144 -40 l 272 -40 l 272 -129 b 242 -272 272 -207 251 -251 "},"ļ":{"ha":204,"x_min":0,"x_max":0,"o":"m 176 0 l 28 0 l 28 1033 l 176 1033 m 75 -272 b 93 -182 82 -254 92 -221 l 40 -182 l 40 -40 l 168 -40 l 168 -129 b 138 -272 168 -207 147 -251 "},"Ľ":{"ha":394,"x_min":0,"x_max":0,"o":"m 224 1033 l 336 1033 l 319 833 l 214 833 m 189 1033 l 189 160 l 381 160 l 381 0 l 32 0 l 32 1033 "},"ľ":{"ha":204,"x_min":0,"x_max":0,"o":"m 211 1033 l 324 1033 l 307 833 l 201 833 m 176 0 l 28 0 l 28 1033 l 176 1033 "},"Ŀ":{"ha":393,"x_min":0,"x_max":0,"o":"m 378 446 l 232 446 l 232 622 l 378 622 m 189 1033 l 189 160 l 381 160 l 381 0 l 32 0 l 32 1033 "},"ŀ":{"ha":363,"x_min":0,"x_max":0,"o":"m 353 447 l 208 447 l 208 625 l 353 625 m 176 0 l 28 0 l 28 1033 l 176 1033 "},"Ł":{"ha":413,"x_min":0,"x_max":0,"o":"m 208 1033 l 208 601 l 342 699 l 342 554 l 208 460 l 208 160 l 400 160 l 400 0 l 51 0 l 51 350 l 4 317 l 4 454 l 51 488 l 51 1033 "},"ł":{"ha":235,"x_min":0,"x_max":0,"o":"m 192 0 l 43 0 l 43 485 l 1 456 l 1 588 l 43 617 l 43 1033 l 192 1033 l 192 725 l 233 756 l 233 622 l 192 592 "},"Ń":{"ha":483,"x_min":0,"x_max":0,"o":"m 174 1033 l 308 479 l 308 1033 l 451 1033 l 451 0 l 324 0 l 174 594 l 174 0 l 32 0 l 32 1033 m 233 1225 l 364 1225 l 303 1074 l 175 1074 "},"ń":{"ha":435,"x_min":0,"x_max":0,"o":"m 28 747 l 174 747 l 174 660 b 300 751 197 701 240 751 l 307 751 b 407 636 383 751 407 685 l 407 0 l 257 0 l 257 560 b 218 615 257 594 247 615 b 176 554 186 615 176 594 l 176 0 l 28 0 m 207 968 l 332 968 l 276 788 l 154 788 "},"Ņ":{"ha":483,"x_min":0,"x_max":0,"o":"m 174 1033 l 308 479 l 308 1033 l 451 1033 l 451 0 l 324 0 l 174 594 l 174 0 l 32 0 l 32 1033 m 218 -272 b 236 -182 225 -254 235 -221 l 183 -182 l 183 -40 l 311 -40 l 311 -129 b 281 -272 311 -207 290 -251 "},"ņ":{"ha":435,"x_min":0,"x_max":0,"o":"m 28 747 l 174 747 l 174 660 b 300 751 197 701 240 751 l 307 751 b 407 636 383 751 407 685 l 407 0 l 257 0 l 257 560 b 218 615 257 594 247 615 b 176 554 186 615 176 594 l 176 0 l 28 0 m 190 -272 b 208 -182 197 -254 207 -221 l 156 -182 l 156 -40 l 283 -40 l 283 -129 b 253 -272 283 -207 263 -251 "},"Ň":{"ha":483,"x_min":0,"x_max":0,"o":"m 174 1033 l 308 479 l 308 1033 l 451 1033 l 451 0 l 324 0 l 174 594 l 174 0 l 32 0 l 32 1033 m 97 1225 l 210 1225 l 247 1158 l 285 1225 l 396 1225 l 308 1074 l 185 1074 "},"ň":{"ha":435,"x_min":0,"x_max":0,"o":"m 28 747 l 174 747 l 174 660 b 300 751 197 701 240 751 l 307 751 b 407 636 383 751 407 685 l 407 0 l 257 0 l 257 560 b 218 615 257 594 247 615 b 176 554 186 615 176 594 l 176 0 l 28 0 m 75 968 l 185 968 l 219 879 l 254 968 l 361 968 l 282 788 l 154 788 "},"ŉ":{"ha":539,"x_min":0,"x_max":0,"o":"m 132 747 l 278 747 l 278 660 b 404 751 301 701 344 751 l 411 751 b 511 636 488 751 511 685 l 511 0 l 361 0 l 361 560 b 322 615 361 594 351 615 b 281 554 290 615 281 594 l 281 0 l 132 0 m 33 760 b 58 878 43 786 54 835 l 3 878 l 3 1033 l 140 1033 l 140 919 b 110 760 140 849 122 789 "},"Ŋ":{"ha":483,"x_min":0,"x_max":0,"o":"m 318 -261 l 238 -261 l 238 -119 l 274 -119 b 310 -81 300 -119 310 -110 l 310 0 l 174 592 l 174 0 l 32 0 l 32 1033 l 176 1033 l 310 449 l 310 1033 l 451 1033 l 451 -107 b 318 -261 451 -219 414 -261 "},"ŋ":{"ha":435,"x_min":0,"x_max":0,"o":"m 257 560 b 218 615 257 594 247 615 b 176 554 186 615 176 594 l 176 0 l 28 0 l 28 747 l 174 747 l 174 660 b 300 751 197 703 243 751 l 307 751 b 407 636 383 751 407 685 l 407 -153 b 310 -261 407 -243 354 -261 l 196 -261 l 196 -119 l 228 -119 b 257 -86 247 -119 257 -108 "},"Ō":{"ha":485,"x_min":0,"x_max":0,"o":"m 457 231 b 257 -12 457 86 408 -12 l 231 -12 b 28 231 81 -12 28 86 l 28 806 b 229 1043 28 950 81 1043 l 256 1043 b 457 807 408 1043 457 949 m 297 814 b 243 893 297 867 279 893 b 188 814 203 893 188 868 l 188 219 b 244 140 188 175 200 140 b 297 219 288 140 297 175 m 122 1193 l 363 1193 l 363 1083 l 122 1083 "},"ō":{"ha":431,"x_min":0,"x_max":0,"o":"m 24 565 b 201 758 24 689 89 758 l 229 758 b 407 571 340 758 407 693 l 407 181 b 229 -12 407 81 344 -12 l 201 -12 b 24 181 72 -12 24 81 m 174 188 b 215 129 174 150 188 129 b 257 188 244 129 257 154 l 257 564 b 215 621 257 607 242 621 b 174 564 189 621 174 607 m 96 911 l 335 911 l 335 804 l 96 804 "},"Ŏ":{"ha":485,"x_min":0,"x_max":0,"o":"m 457 231 b 257 -12 457 86 408 -12 l 231 -12 b 28 231 81 -12 28 86 l 28 806 b 229 1043 28 950 81 1043 l 256 1043 b 457 807 408 1043 457 949 m 297 814 b 243 893 297 867 279 893 b 188 814 203 893 188 868 l 188 219 b 244 140 188 175 200 140 b 297 219 288 140 297 175 m 240 1069 b 103 1200 163 1069 103 1115 l 103 1208 l 210 1208 l 210 1203 b 242 1165 210 1178 221 1165 l 243 1165 b 276 1203 264 1165 276 1179 l 276 1208 l 382 1208 l 382 1200 b 244 1069 382 1115 317 1069 "},"ŏ":{"ha":431,"x_min":0,"x_max":0,"o":"m 24 565 b 201 758 24 689 89 758 l 229 758 b 407 571 340 758 407 693 l 407 181 b 229 -12 407 81 344 -12 l 201 -12 b 24 181 72 -12 24 81 m 174 188 b 215 129 174 150 188 129 b 257 188 244 129 257 154 l 257 564 b 215 621 257 607 242 621 b 174 564 189 621 174 607 m 214 785 b 74 928 131 785 74 829 l 74 933 l 182 933 l 182 928 b 215 881 182 896 193 881 l 217 881 b 250 928 235 881 250 894 l 250 933 l 354 933 l 354 928 b 218 785 354 829 294 785 "},"Ő":{"ha":485,"x_min":0,"x_max":0,"o":"m 457 231 b 257 -12 457 86 408 -12 l 231 -12 b 28 231 81 -12 28 86 l 28 806 b 229 1043 28 950 81 1043 l 256 1043 b 457 807 408 1043 457 949 m 297 814 b 243 893 297 867 279 893 b 188 814 203 893 188 868 l 188 219 b 244 140 188 175 200 140 b 297 219 288 140 297 175 m 269 1074 l 310 1224 l 418 1224 l 374 1074 m 169 1224 l 278 1224 l 239 1074 l 135 1074 "},"ő":{"ha":431,"x_min":0,"x_max":0,"o":"m 24 565 b 201 758 24 689 89 758 l 229 758 b 407 571 340 758 407 693 l 407 181 b 229 -12 407 81 344 -12 l 201 -12 b 24 181 72 -12 24 81 m 174 188 b 215 129 174 150 188 129 b 257 188 244 129 257 154 l 257 564 b 215 621 257 607 242 621 b 174 564 189 621 174 607 m 238 788 l 275 964 l 381 964 l 340 788 m 136 964 l 242 964 l 204 788 l 101 788 "},"Ŕ":{"ha":471,"x_min":0,"x_max":0,"o":"m 189 608 l 231 608 b 288 682 274 608 288 636 l 288 826 b 231 893 288 871 279 893 l 189 893 m 189 0 l 32 0 l 32 1033 l 286 1033 b 443 874 392 1033 443 990 l 443 690 b 375 558 443 604 403 569 b 443 446 410 543 443 517 l 443 83 b 458 7 443 40 451 22 l 458 0 l 303 0 b 288 85 296 11 288 29 l 288 396 b 229 461 288 442 279 461 l 189 461 m 221 1225 l 351 1225 l 290 1074 l 163 1074 "},"ŕ":{"ha":389,"x_min":0,"x_max":0,"o":"m 174 653 b 288 751 186 681 218 751 l 293 751 b 371 667 347 751 371 717 l 371 396 l 226 396 l 226 563 b 201 608 226 594 225 608 b 176 563 178 608 176 592 l 176 0 l 28 0 l 28 747 l 174 747 m 194 968 l 319 968 l 264 788 l 142 788 "},"Ŗ":{"ha":471,"x_min":0,"x_max":0,"o":"m 189 608 l 231 608 b 288 682 274 608 288 636 l 288 826 b 231 893 288 871 279 893 l 189 893 m 189 0 l 32 0 l 32 1033 l 286 1033 b 443 874 392 1033 443 990 l 443 690 b 375 558 443 604 403 569 b 443 446 410 543 443 517 l 443 83 b 458 7 443 40 451 22 l 458 0 l 303 0 b 288 85 296 11 288 29 l 288 396 b 229 461 288 442 279 461 l 189 461 m 214 -272 b 232 -182 221 -254 231 -221 l 179 -182 l 179 -40 l 307 -40 l 307 -129 b 276 -272 307 -207 286 -251 "},"ŗ":{"ha":389,"x_min":0,"x_max":0,"o":"m 174 653 b 288 751 186 681 218 751 l 293 751 b 371 667 347 751 371 717 l 371 396 l 226 396 l 226 563 b 201 608 226 594 225 608 b 176 563 178 608 176 592 l 176 0 l 28 0 l 28 747 l 174 747 m 74 -272 b 92 -182 81 -254 90 -221 l 39 -182 l 39 -40 l 167 -40 l 167 -129 b 136 -272 167 -207 146 -251 "},"Ř":{"ha":471,"x_min":0,"x_max":0,"o":"m 189 608 l 231 608 b 288 682 274 608 288 636 l 288 826 b 231 893 288 871 279 893 l 189 893 m 189 0 l 32 0 l 32 1033 l 286 1033 b 443 874 392 1033 443 990 l 443 690 b 375 558 443 604 403 569 b 443 446 410 543 443 517 l 443 83 b 458 7 443 40 451 22 l 458 0 l 303 0 b 288 85 296 11 288 29 l 288 396 b 229 461 288 442 279 461 l 189 461 m 78 1225 l 190 1225 l 228 1158 l 265 1225 l 376 1225 l 289 1074 l 165 1074 "},"ř":{"ha":389,"x_min":0,"x_max":0,"o":"m 174 653 b 288 751 186 681 218 751 l 293 751 b 371 667 347 751 371 717 l 371 396 l 226 396 l 226 563 b 201 608 226 594 225 608 b 176 563 178 608 176 592 l 176 0 l 28 0 l 28 747 l 174 747 m 61 968 l 171 968 l 206 879 l 240 968 l 347 968 l 268 788 l 140 788 "},"Ś":{"ha":463,"x_min":0,"x_max":0,"o":"m 250 1043 b 429 864 379 1043 429 986 l 429 694 l 278 694 l 278 843 b 233 904 278 878 271 904 b 188 832 196 904 188 881 l 188 813 b 251 654 188 754 199 722 l 351 525 b 444 264 422 433 444 382 l 444 231 b 242 -11 444 79 381 -11 l 211 -11 b 19 185 85 -11 19 57 l 19 392 l 175 392 l 175 211 b 226 139 175 163 192 139 b 278 228 264 139 278 163 l 278 251 b 214 425 278 326 271 350 l 114 553 b 28 808 47 639 28 706 l 28 842 b 221 1043 28 981 97 1043 m 228 1225 l 358 1225 l 297 1074 l 169 1074 "},"ś":{"ha":386,"x_min":0,"x_max":0,"o":"m 364 511 l 231 511 l 231 600 b 197 642 231 628 219 642 b 165 596 171 642 165 625 l 165 583 b 200 500 165 546 174 532 l 290 392 b 374 186 360 308 374 261 l 374 167 b 206 -12 374 78 328 -12 l 176 -12 b 15 140 58 -12 15 56 l 15 275 l 154 275 l 154 168 b 192 117 154 129 165 117 b 226 168 215 117 226 133 l 226 181 b 186 288 226 213 224 244 l 99 388 b 25 581 39 456 25 510 l 25 601 b 186 758 25 696 74 758 l 213 758 b 364 624 331 758 364 696 m 190 968 l 315 968 l 260 788 l 138 788 "},"Ŝ":{"ha":463,"x_min":0,"x_max":0,"o":"m 250 1043 b 429 864 379 1043 429 986 l 429 694 l 278 694 l 278 843 b 233 904 278 878 271 904 b 188 832 196 904 188 881 l 188 813 b 251 654 188 754 199 722 l 351 525 b 444 264 422 433 444 382 l 444 231 b 242 -11 444 79 381 -11 l 211 -11 b 19 185 85 -11 19 57 l 19 392 l 175 392 l 175 211 b 226 139 175 163 192 139 b 278 228 264 139 278 163 l 278 251 b 214 425 278 326 271 350 l 114 553 b 28 808 47 639 28 706 l 28 842 b 221 1043 28 981 97 1043 m 382 1074 l 269 1074 l 232 1140 l 194 1074 l 83 1074 l 171 1225 l 294 1225 "},"ŝ":{"ha":386,"x_min":0,"x_max":0,"o":"m 364 511 l 231 511 l 231 600 b 197 642 231 628 219 642 b 165 596 171 642 165 625 l 165 583 b 200 500 165 546 174 532 l 290 392 b 374 186 360 308 374 261 l 374 167 b 206 -12 374 78 328 -12 l 176 -12 b 15 140 58 -12 15 56 l 15 275 l 154 275 l 154 168 b 192 117 154 129 165 117 b 226 168 215 117 226 133 l 226 181 b 186 288 226 213 224 244 l 99 388 b 25 581 39 456 25 510 l 25 601 b 186 758 25 696 74 758 l 213 758 b 364 624 331 758 364 696 m 343 788 l 233 788 l 199 878 l 164 788 l 57 788 l 136 969 l 264 969 "},"Ş":{"ha":463,"x_min":0,"x_max":0,"o":"m 250 1043 b 429 864 379 1043 429 986 l 429 694 l 278 694 l 278 843 b 233 904 278 878 271 904 b 188 832 196 904 188 881 l 188 813 b 251 654 188 754 199 722 l 351 525 b 444 264 422 433 444 382 l 444 231 b 242 -11 444 79 381 -11 l 211 -11 b 19 185 85 -11 19 57 l 19 392 l 175 392 l 175 211 b 226 139 175 163 192 139 b 278 228 264 139 278 163 l 278 251 b 214 425 278 326 271 350 l 114 553 b 28 808 47 639 28 706 l 28 842 b 221 1043 28 981 97 1043 m 133 -261 l 133 -178 l 186 -178 b 219 -153 208 -178 219 -169 b 186 -126 219 -135 208 -126 l 154 -126 l 154 0 l 231 0 l 231 -56 b 338 -154 296 -56 338 -87 l 338 -158 b 210 -261 338 -229 281 -261 "},"ş":{"ha":386,"x_min":0,"x_max":0,"o":"m 364 511 l 231 511 l 231 600 b 197 642 231 628 219 642 b 165 596 171 642 165 625 l 165 583 b 200 500 165 546 174 532 l 290 392 b 374 186 360 308 374 261 l 374 167 b 206 -12 374 78 328 -12 l 176 -12 b 15 140 58 -12 15 56 l 15 275 l 154 275 l 154 168 b 192 117 154 129 165 117 b 226 168 215 117 226 133 l 226 181 b 186 288 226 213 224 244 l 99 388 b 25 581 39 456 25 510 l 25 601 b 186 758 25 696 74 758 l 213 758 b 364 624 331 758 364 696 m 96 -261 l 96 -178 l 149 -178 b 182 -153 171 -178 182 -169 b 149 -126 182 -135 171 -126 l 117 -126 l 117 0 l 193 0 l 193 -56 b 300 -154 258 -56 300 -87 l 300 -158 b 172 -261 300 -229 243 -261 "},"Š":{"ha":463,"x_min":0,"x_max":0,"o":"m 250 1043 b 429 864 379 1043 429 986 l 429 694 l 278 694 l 278 843 b 233 904 278 878 271 904 b 188 832 196 904 188 881 l 188 813 b 251 654 188 754 199 722 l 351 525 b 444 264 422 433 444 382 l 444 231 b 242 -11 444 79 381 -11 l 211 -11 b 19 185 85 -11 19 57 l 19 392 l 175 392 l 175 211 b 226 139 175 163 192 139 b 278 228 264 139 278 163 l 278 251 b 214 425 278 326 271 350 l 114 553 b 28 808 47 639 28 706 l 28 842 b 221 1043 28 981 97 1043 m 85 1225 l 197 1225 l 235 1158 l 272 1225 l 383 1225 l 296 1074 l 172 1074 "},"š":{"ha":386,"x_min":0,"x_max":0,"o":"m 364 511 l 231 511 l 231 600 b 197 642 231 628 219 642 b 165 596 171 642 165 625 l 165 583 b 200 500 165 546 174 532 l 290 392 b 374 186 360 308 374 261 l 374 167 b 206 -12 374 78 328 -12 l 176 -12 b 15 140 58 -12 15 56 l 15 275 l 154 275 l 154 168 b 192 117 154 129 165 117 b 226 168 215 117 226 133 l 226 181 b 186 288 226 213 224 244 l 99 388 b 25 581 39 456 25 510 l 25 601 b 186 758 25 696 74 758 l 213 758 b 364 624 331 758 364 696 m 57 968 l 167 968 l 201 879 l 236 968 l 343 968 l 264 788 l 136 788 "},"Ţ":{"ha":444,"x_min":0,"x_max":0,"o":"m 432 1033 l 432 883 l 300 883 l 300 0 l 144 0 l 144 883 l 13 883 l 13 1033 m 196 -272 b 214 -182 203 -254 213 -221 l 161 -182 l 161 -40 l 289 -40 l 289 -129 b 258 -272 289 -207 268 -251 "},"ţ":{"ha":343,"x_min":0,"x_max":0,"o":"m 182 0 b 93 92 132 0 93 25 l 93 606 l 8 606 l 8 747 l 93 747 l 93 993 l 242 993 l 242 747 l 329 747 l 329 606 l 242 606 l 242 178 b 271 143 242 151 244 143 l 329 143 l 329 0 m 193 -272 b 211 -182 200 -254 210 -221 l 158 -182 l 158 -40 l 286 -40 l 286 -129 b 256 -272 286 -207 265 -251 "},"Ť":{"ha":444,"x_min":0,"x_max":0,"o":"m 432 1033 l 432 883 l 300 883 l 300 0 l 144 0 l 144 883 l 13 883 l 13 1033 m 75 1225 l 188 1225 l 225 1158 l 263 1225 l 374 1225 l 286 1074 l 163 1074 "},"ť":{"ha":343,"x_min":0,"x_max":0,"o":"m 276 1033 l 389 1033 l 372 833 l 267 833 m 182 0 b 93 92 132 0 93 25 l 93 606 l 8 606 l 8 747 l 93 747 l 93 993 l 242 993 l 242 747 l 329 747 l 329 606 l 242 606 l 242 178 b 271 143 242 151 244 143 l 329 143 l 329 0 "},"Ŧ":{"ha":444,"x_min":0,"x_max":0,"o":"m 47 511 l 47 644 l 397 644 l 397 511 m 432 1033 l 432 883 l 300 883 l 300 0 l 144 0 l 144 883 l 13 883 l 13 1033 "},"ŧ":{"ha":343,"x_min":0,"x_max":0,"o":"m 183 0 b 94 92 133 0 94 25 l 94 353 l 8 353 l 8 483 l 94 483 l 94 604 l 8 604 l 8 747 l 94 747 l 94 993 l 243 993 l 243 747 l 331 747 l 331 604 l 243 604 l 243 483 l 331 483 l 331 353 l 243 353 l 243 179 b 272 144 243 153 246 144 l 331 144 l 331 0 "},"Ũ":{"ha":479,"x_min":0,"x_max":0,"o":"m 29 1033 l 189 1033 l 189 215 b 239 142 189 171 204 142 b 290 215 276 142 290 169 l 290 1033 l 450 1033 l 450 225 b 253 -12 450 79 392 -12 l 225 -12 b 29 225 86 -12 29 75 m 375 1156 b 317 1076 375 1107 354 1076 l 315 1076 b 236 1100 289 1076 268 1085 b 204 1113 221 1107 214 1113 b 194 1100 197 1113 194 1108 l 194 1074 l 106 1074 l 106 1139 b 165 1217 106 1193 128 1217 l 167 1217 b 242 1194 190 1217 208 1211 b 278 1179 258 1185 268 1179 b 286 1192 283 1179 286 1183 l 286 1219 l 375 1219 "},"ũ":{"ha":426,"x_min":0,"x_max":0,"o":"m 399 0 l 256 0 l 256 89 b 129 -3 229 49 194 -3 l 126 -3 b 28 124 67 -3 28 60 l 28 747 l 176 747 l 176 188 b 211 138 176 160 185 138 b 250 192 243 138 250 160 l 250 747 l 399 747 m 351 933 l 351 869 b 293 790 351 821 331 790 l 292 790 b 213 814 265 790 244 799 b 181 826 197 821 190 826 b 171 814 174 826 171 822 l 171 788 l 82 788 l 82 853 b 142 931 82 907 104 931 l 143 931 b 218 908 167 931 185 925 b 254 893 235 899 244 893 b 263 906 260 893 263 897 l 263 933 "},"Ū":{"ha":479,"x_min":0,"x_max":0,"o":"m 29 1033 l 189 1033 l 189 215 b 239 142 189 171 204 142 b 290 215 276 142 290 169 l 290 1033 l 450 1033 l 450 225 b 253 -12 450 79 392 -12 l 225 -12 b 29 225 86 -12 29 75 m 119 1193 l 360 1193 l 360 1083 l 119 1083 "},"ū":{"ha":426,"x_min":0,"x_max":0,"o":"m 399 0 l 256 0 l 256 89 b 129 -3 229 49 194 -3 l 126 -3 b 28 124 67 -3 28 60 l 28 747 l 176 747 l 176 188 b 211 138 176 160 185 138 b 250 192 243 138 250 160 l 250 747 l 399 747 m 94 911 l 333 911 l 333 804 l 94 804 "},"Ŭ":{"ha":479,"x_min":0,"x_max":0,"o":"m 29 1033 l 189 1033 l 189 215 b 239 142 189 171 204 142 b 290 215 276 142 290 169 l 290 1033 l 450 1033 l 450 225 b 253 -12 450 79 392 -12 l 225 -12 b 29 225 86 -12 29 75 m 238 1069 b 100 1200 160 1069 100 1115 l 100 1208 l 207 1208 l 207 1203 b 239 1165 207 1178 218 1165 l 240 1165 b 274 1203 261 1165 274 1179 l 274 1208 l 379 1208 l 379 1200 b 242 1069 379 1115 314 1069 "},"ŭ":{"ha":426,"x_min":0,"x_max":0,"o":"m 399 0 l 256 0 l 256 89 b 129 -3 229 49 194 -3 l 126 -3 b 28 124 67 -3 28 60 l 28 747 l 176 747 l 176 188 b 211 138 176 160 185 138 b 250 192 243 138 250 160 l 250 747 l 399 747 m 211 785 b 71 928 128 785 71 829 l 71 933 l 179 933 l 179 928 b 213 881 179 896 190 881 l 214 881 b 247 928 232 881 247 894 l 247 933 l 351 933 l 351 928 b 215 785 351 829 292 785 "},"Ů":{"ha":479,"x_min":0,"x_max":0,"o":"m 29 1033 l 189 1033 l 189 215 b 239 142 189 171 204 142 b 290 215 276 142 290 169 l 290 1033 l 450 1033 l 450 225 b 253 -12 450 79 392 -12 l 225 -12 b 29 225 86 -12 29 75 m 240 1129 b 283 1175 267 1129 283 1147 b 240 1221 283 1201 267 1221 b 197 1175 214 1221 197 1201 b 240 1129 197 1147 214 1129 m 350 1176 b 240 1064 350 1111 306 1064 b 129 1176 175 1064 129 1111 b 240 1286 129 1238 178 1286 b 350 1176 306 1286 350 1238 "},"ů":{"ha":426,"x_min":0,"x_max":0,"o":"m 399 0 l 256 0 l 256 89 b 129 -3 229 49 194 -3 l 126 -3 b 28 124 67 -3 28 60 l 28 747 l 176 747 l 176 188 b 211 138 176 160 185 138 b 250 192 243 138 250 160 l 250 747 l 399 747 m 214 782 b 103 894 149 782 103 829 b 214 1004 103 956 151 1004 b 324 894 279 1004 324 956 b 214 782 324 829 279 782 m 214 847 b 257 893 240 847 257 865 b 214 939 257 919 240 939 b 171 893 188 939 171 919 b 214 847 171 865 188 847 "},"Ű":{"ha":479,"x_min":0,"x_max":0,"o":"m 29 1033 l 189 1033 l 189 215 b 239 142 189 171 204 142 b 290 215 276 142 290 169 l 290 1033 l 450 1033 l 450 225 b 253 -12 450 79 392 -12 l 225 -12 b 29 225 86 -12 29 75 m 254 1074 l 294 1224 l 403 1224 l 358 1074 m 154 1224 l 263 1224 l 224 1074 l 119 1074 "},"ű":{"ha":426,"x_min":0,"x_max":0,"o":"m 399 0 l 256 0 l 256 89 b 129 -3 229 49 194 -3 l 126 -3 b 28 124 67 -3 28 60 l 28 747 l 176 747 l 176 188 b 211 138 176 160 185 138 b 250 192 243 138 250 160 l 250 747 l 399 747 m 233 788 l 271 964 l 376 964 l 336 788 m 132 964 l 238 964 l 200 788 l 97 788 "},"Ų":{"ha":479,"x_min":0,"x_max":0,"o":"m 365 0 b 304 -126 321 -57 304 -89 l 304 -132 b 338 -161 304 -151 315 -161 l 364 -161 l 364 -261 l 294 -261 b 194 -172 239 -261 194 -232 l 194 -151 b 276 -11 194 -103 226 -60 b 253 -12 269 -12 263 -12 l 225 -12 b 29 225 86 -12 29 75 l 29 1033 l 189 1033 l 189 215 b 239 142 189 171 204 142 b 290 215 276 142 290 169 l 290 1033 l 450 1033 l 450 225 b 365 0 450 92 401 47 "},"ų":{"ha":426,"x_min":0,"x_max":0,"o":"m 399 0 l 256 0 l 256 89 b 129 -3 229 49 194 -3 l 126 -3 b 28 124 67 -3 28 60 l 28 747 l 176 747 l 176 188 b 211 138 176 160 185 138 b 250 192 243 138 250 160 l 250 747 l 399 747 m 229 -151 b 321 0 229 -100 267 -54 l 399 0 b 339 -126 353 -62 339 -89 l 339 -132 b 372 -161 339 -151 350 -161 l 399 -161 l 399 -261 l 329 -261 b 229 -172 274 -261 229 -232 "},"Ŵ":{"ha":738,"x_min":0,"x_max":0,"o":"m 446 1033 l 517 364 l 589 1033 l 736 1033 l 604 0 l 436 0 l 371 601 l 304 0 l 131 0 l 1 1033 l 160 1033 l 231 365 l 300 1033 m 519 1074 l 407 1074 l 369 1140 l 332 1074 l 221 1074 l 308 1225 l 432 1225 "},"ŵ":{"ha":639,"x_min":0,"x_max":0,"o":"m 113 0 l -1 747 l 147 747 l 203 282 l 260 747 l 390 747 l 447 282 l 503 747 l 640 747 l 526 0 l 376 0 l 322 425 l 268 0 m 467 788 l 357 788 l 322 878 l 288 788 l 181 788 l 260 969 l 388 969 "},"Ŷ":{"ha":425,"x_min":0,"x_max":0,"o":"m 293 429 l 293 0 l 136 0 l 136 431 l -6 1033 l 147 1033 l 219 647 l 289 1033 l 431 1033 m 367 1074 l 254 1074 l 217 1140 l 179 1074 l 68 1074 l 156 1225 l 279 1225 "},"ŷ":{"ha":396,"x_min":0,"x_max":0,"o":"m -1 747 l 143 747 l 201 290 l 257 747 l 399 747 l 249 -150 b 157 -261 236 -224 211 -261 l 17 -261 l 17 -119 l 81 -119 b 114 -82 107 -119 110 -108 l 118 -50 b 115 22 122 -18 119 -4 m 344 788 l 235 788 l 200 878 l 165 788 l 58 788 l 138 969 l 265 969 "},"Ź":{"ha":424,"x_min":0,"x_max":0,"o":"m 401 1033 l 401 897 l 175 151 l 413 151 l 413 0 l 11 0 l 11 140 l 235 886 l 25 886 l 25 1033 m 203 1225 l 333 1225 l 272 1074 l 144 1074 "},"ź":{"ha":346,"x_min":0,"x_max":0,"o":"m 324 747 l 324 624 l 151 136 l 335 136 l 335 0 l 10 0 l 10 131 l 178 614 l 25 614 l 25 747 m 164 968 l 289 968 l 233 788 l 111 788 "},"Ż":{"ha":424,"x_min":0,"x_max":0,"o":"m 401 1033 l 401 897 l 175 151 l 413 151 l 413 0 l 11 0 l 11 140 l 235 886 l 25 886 l 25 1033 m 286 1074 l 138 1074 l 138 1233 l 286 1233 "},"ż":{"ha":346,"x_min":0,"x_max":0,"o":"m 324 747 l 324 624 l 151 136 l 335 136 l 335 0 l 10 0 l 10 131 l 178 614 l 25 614 l 25 747 m 247 788 l 99 788 l 99 947 l 247 947 "},"Ž":{"ha":424,"x_min":0,"x_max":0,"o":"m 401 1033 l 401 897 l 175 151 l 413 151 l 413 0 l 11 0 l 11 140 l 235 886 l 25 886 l 25 1033 m 64 1225 l 176 1225 l 214 1158 l 251 1225 l 363 1225 l 275 1074 l 151 1074 "},"ž":{"ha":346,"x_min":0,"x_max":0,"o":"m 324 747 l 324 624 l 151 136 l 335 136 l 335 0 l 10 0 l 10 131 l 178 614 l 25 614 l 25 747 m 32 968 l 142 968 l 176 879 l 211 968 l 318 968 l 239 788 l 111 788 "},"Ǻ":{"ha":444,"x_min":0,"x_max":0,"o":"m 218 1464 l 349 1464 l 288 1313 l 160 1313 m 274 194 l 158 194 l 139 0 l -1 0 l 125 1033 l 311 1033 l 446 0 l 294 0 m 175 349 l 257 349 l 215 731 m 221 1129 b 264 1175 247 1129 264 1147 b 221 1221 264 1201 247 1221 b 178 1175 194 1221 178 1201 b 221 1129 178 1147 194 1129 m 331 1176 b 221 1064 331 1111 286 1064 b 110 1176 156 1064 110 1111 b 221 1286 110 1238 158 1286 b 331 1176 286 1286 331 1238 "},"ǻ":{"ha":431,"x_min":0,"x_max":0,"o":"m 21 288 b 92 438 21 361 38 404 b 221 504 125 460 200 493 b 239 536 236 514 239 515 l 239 583 b 203 632 239 621 229 632 l 200 632 b 163 585 171 632 163 618 l 163 506 l 29 506 l 29 611 b 186 753 29 667 46 753 l 214 753 b 382 606 357 753 382 683 l 382 161 b 406 138 382 143 385 138 l 432 138 l 432 0 l 290 0 b 242 85 258 0 242 22 b 119 -4 222 50 183 -4 l 115 -4 b 21 113 56 -4 21 53 m 239 378 b 186 340 222 368 201 356 b 167 281 171 325 167 310 l 167 178 b 201 129 167 146 178 129 b 239 185 226 129 239 147 m 199 782 b 88 894 133 782 88 829 b 199 1004 88 956 136 1004 b 308 894 264 1004 308 956 b 199 782 308 829 264 782 m 199 847 b 242 893 225 847 242 865 b 199 939 242 919 225 939 b 156 893 172 939 156 919 b 199 847 156 865 172 847 m 193 1211 l 318 1211 l 263 1031 l 140 1031 "},"Ǽ":{"ha":675,"x_min":0,"x_max":0,"o":"m 300 0 l 300 200 l 181 200 l 144 0 l -6 0 l 190 1033 l 651 1033 l 651 883 l 457 883 l 457 613 l 610 613 l 610 456 l 457 456 l 457 157 l 661 157 l 661 0 m 300 353 l 300 861 l 208 353 m 407 1225 l 538 1225 l 476 1074 l 349 1074 "},"ǽ":{"ha":625,"x_min":0,"x_max":0,"o":"m 251 82 b 122 -4 229 43 188 -4 l 118 -4 b 21 113 56 -4 21 53 l 21 257 b 92 407 21 331 38 374 b 221 474 125 429 200 463 b 239 506 236 483 239 485 l 239 586 b 203 635 239 624 229 635 l 200 635 b 163 588 171 635 163 621 l 163 475 l 29 475 l 29 614 b 186 756 29 669 46 756 l 211 756 b 315 715 288 756 308 725 b 417 758 322 726 351 758 l 440 758 b 603 572 556 758 603 694 l 603 351 l 382 351 l 382 185 b 422 129 382 151 390 129 b 460 183 449 129 460 151 l 460 301 l 603 301 l 603 178 b 435 -12 603 38 524 -12 l 411 -12 b 251 82 296 -12 263 46 m 239 347 b 186 310 222 338 201 325 b 167 250 171 294 167 279 l 167 178 b 201 129 167 146 178 129 b 239 185 226 129 239 147 m 382 482 l 464 482 l 464 575 b 424 633 464 607 458 633 b 382 575 386 633 382 607 m 307 968 l 432 968 l 376 788 l 254 788 "},"Ǿ":{"ha":485,"x_min":0,"x_max":0,"o":"m 458 211 b 260 -14 458 85 388 -14 l 231 -14 b 108 35 165 -14 126 14 l 93 0 l -1 0 l 42 113 b 26 211 31 139 26 172 l 26 807 b 226 1043 26 949 81 1043 l 258 1043 b 379 1000 319 1043 353 1024 l 392 1033 l 486 1033 l 443 918 b 458 808 453 886 458 849 m 243 890 b 182 813 194 890 182 864 l 182 456 l 304 811 l 304 814 b 243 890 304 865 283 890 m 243 146 b 304 214 293 146 304 181 l 304 576 l 182 224 l 182 213 b 243 146 182 181 194 146 m 238 1225 l 368 1225 l 307 1074 l 179 1074 "},"ǿ":{"ha":425,"x_min":0,"x_max":0,"o":"m 24 565 b 197 758 24 689 86 758 l 228 758 b 340 718 276 758 314 744 l 354 747 l 439 747 l 392 643 b 401 571 399 622 401 599 l 401 181 b 228 -12 401 81 342 -12 l 197 -12 b 86 31 143 -12 110 4 l 72 0 l -12 0 l 35 103 b 24 181 25 126 24 153 m 258 564 b 213 621 258 607 244 621 b 167 564 183 621 167 607 l 167 350 l 258 558 m 213 129 b 258 188 246 129 258 154 l 258 390 l 167 186 b 213 129 167 151 181 129 m 204 968 l 329 968 l 274 788 l 151 788 "},"Ș":{"ha":463,"x_min":0,"x_max":0,"o":"m 250 1043 b 429 864 379 1043 429 986 l 429 694 l 278 694 l 278 843 b 233 904 278 878 271 904 b 188 832 196 904 188 881 l 188 813 b 251 654 188 754 199 722 l 351 525 b 444 264 422 433 444 382 l 444 231 b 242 -11 444 79 381 -11 l 211 -11 b 19 185 85 -11 19 57 l 19 392 l 175 392 l 175 211 b 226 139 175 163 192 139 b 278 228 264 139 278 163 l 278 251 b 214 425 278 326 271 350 l 114 553 b 28 808 47 639 28 706 l 28 842 b 221 1043 28 981 97 1043 m 197 -272 b 215 -182 204 -254 214 -221 l 163 -182 l 163 -40 l 290 -40 l 290 -129 b 260 -272 290 -207 269 -251 "},"ș":{"ha":386,"x_min":0,"x_max":0,"o":"m 364 511 l 231 511 l 231 600 b 197 642 231 628 219 642 b 165 596 171 642 165 625 l 165 583 b 200 500 165 546 174 532 l 290 392 b 374 186 360 308 374 261 l 374 167 b 206 -12 374 78 328 -12 l 176 -12 b 15 140 58 -12 15 56 l 15 275 l 154 275 l 154 168 b 192 117 154 129 165 117 b 226 168 215 117 226 133 l 226 181 b 186 288 226 213 224 244 l 99 388 b 25 581 39 456 25 510 l 25 601 b 186 758 25 696 74 758 l 213 758 b 364 624 331 758 364 696 m 161 -272 b 179 -182 168 -254 178 -221 l 126 -182 l 126 -40 l 254 -40 l 254 -129 b 224 -272 254 -207 233 -251 "},"Ț":{"ha":444,"x_min":0,"x_max":0,"o":"m 432 1033 l 432 883 l 300 883 l 300 0 l 144 0 l 144 883 l 13 883 l 13 1033 m 196 -272 b 214 -182 203 -254 213 -221 l 161 -182 l 161 -40 l 289 -40 l 289 -129 b 258 -272 289 -207 268 -251 "},"ț":{"ha":343,"x_min":0,"x_max":0,"o":"m 182 0 b 93 92 132 0 93 25 l 93 606 l 8 606 l 8 747 l 93 747 l 93 993 l 242 993 l 242 747 l 329 747 l 329 606 l 242 606 l 242 178 b 271 143 242 151 244 143 l 329 143 l 329 0 m 193 -272 b 211 -182 200 -254 210 -221 l 158 -182 l 158 -40 l 286 -40 l 286 -129 b 256 -272 286 -207 265 -251 "},"ȷ":{"ha":206,"x_min":0,"x_max":0,"o":"m 0 -119 b 29 -86 19 -119 29 -108 l 29 747 l 178 747 l 178 -153 b 82 -261 178 -243 128 -261 l -69 -261 l -69 -119 "},"Ẁ":{"ha":738,"x_min":0,"x_max":0,"o":"m 446 1033 l 517 364 l 589 1033 l 736 1033 l 604 0 l 436 0 l 371 601 l 304 0 l 131 0 l 1 1033 l 160 1033 l 231 365 l 300 1033 m 307 1074 l 246 1225 l 376 1225 l 435 1074 "},"ẁ":{"ha":639,"x_min":0,"x_max":0,"o":"m 113 0 l -1 747 l 147 747 l 203 282 l 260 747 l 390 747 l 447 282 l 503 747 l 640 747 l 526 0 l 376 0 l 322 425 l 268 0 m 260 788 l 206 968 l 332 968 l 383 788 "},"Ẃ":{"ha":738,"x_min":0,"x_max":0,"o":"m 446 1033 l 517 364 l 589 1033 l 736 1033 l 604 0 l 436 0 l 371 601 l 304 0 l 131 0 l 1 1033 l 160 1033 l 231 365 l 300 1033 m 368 1225 l 499 1225 l 438 1074 l 310 1074 "},"ẃ":{"ha":639,"x_min":0,"x_max":0,"o":"m 113 0 l -1 747 l 147 747 l 203 282 l 260 747 l 390 747 l 447 282 l 503 747 l 640 747 l 526 0 l 376 0 l 322 425 l 268 0 m 318 968 l 443 968 l 388 788 l 265 788 "},"Ẅ":{"ha":738,"x_min":0,"x_max":0,"o":"m 446 1033 l 517 364 l 589 1033 l 736 1033 l 604 0 l 436 0 l 371 601 l 304 0 l 131 0 l 1 1033 l 160 1033 l 231 365 l 300 1033 m 354 1074 l 229 1074 l 229 1211 l 354 1211 m 515 1074 l 390 1074 l 390 1211 l 515 1211 "},"ẅ":{"ha":639,"x_min":0,"x_max":0,"o":"m 113 0 l -1 747 l 147 747 l 203 282 l 260 747 l 390 747 l 447 282 l 503 747 l 640 747 l 526 0 l 376 0 l 322 425 l 268 0 m 307 788 l 183 788 l 183 924 l 307 924 m 464 788 l 340 788 l 340 924 l 464 924 "},"Ỳ":{"ha":425,"x_min":0,"x_max":0,"o":"m 293 429 l 293 0 l 136 0 l 136 431 l -6 1033 l 147 1033 l 219 647 l 289 1033 l 431 1033 m 157 1074 l 96 1225 l 226 1225 l 285 1074 "},"ỳ":{"ha":396,"x_min":0,"x_max":0,"o":"m -1 747 l 143 747 l 201 290 l 257 747 l 399 747 l 249 -150 b 157 -261 236 -224 211 -261 l 17 -261 l 17 -119 l 81 -119 b 114 -82 107 -119 110 -108 l 118 -50 b 115 22 122 -18 119 -4 m 138 788 l 83 968 l 210 968 l 261 788 "}," ":{"ha":19,"x_min":0,"x_max":0,"o":""},"′":{"ha":157,"x_min":0,"x_max":0,"o":"m 122 790 l 6 790 l 36 1033 l 151 1033 "},"″":{"ha":299,"x_min":0,"x_max":0,"o":"m 119 790 l 6 790 l 35 1033 l 149 1033 m 263 790 l 149 790 l 179 1033 l 293 1033 "},"℗":{"ha":688,"x_min":0,"x_max":0,"o":"m 338 -15 b 28 325 138 -15 28 90 l 28 711 b 339 1049 28 932 139 1049 l 356 1049 b 660 711 558 1049 660 936 l 660 325 b 351 -15 660 86 535 -15 m 351 71 b 560 343 508 71 560 188 l 560 700 b 354 963 560 839 514 963 l 340 963 b 131 700 176 963 131 856 l 131 343 b 340 71 131 181 188 71 m 328 453 l 328 167 l 203 167 l 203 869 l 381 869 b 506 746 468 869 506 835 l 506 592 b 381 453 506 499 468 453 m 328 560 l 349 560 b 381 604 375 560 381 572 l 381 721 b 349 763 381 753 375 763 l 328 763 "},"⅓":{"ha":544,"x_min":0,"x_max":0,"o":"m 10 899 l 10 976 b 88 1033 72 976 81 1006 l 171 1033 l 171 563 l 71 563 l 71 899 m 465 1033 l 115 0 l 13 0 l 364 1033 m 286 311 l 286 363 b 394 479 286 439 311 479 l 411 479 b 519 368 489 479 519 446 l 519 329 b 485 257 519 285 501 267 b 528 189 507 246 528 229 l 528 100 b 415 -10 528 35 494 -10 l 396 -10 b 285 94 307 -10 285 39 l 285 169 l 382 169 l 382 101 b 403 74 382 83 389 74 b 421 101 418 74 421 83 l 421 169 b 399 197 421 190 417 197 l 353 197 l 353 286 l 396 286 b 421 314 414 286 421 292 l 421 367 b 400 397 421 389 417 397 b 379 367 383 397 379 389 l 379 311 "},"⅔":{"ha":636,"x_min":0,"x_max":0,"o":"m 10 563 l 10 615 b 115 806 10 667 28 696 b 154 903 149 843 154 863 l 154 929 b 133 957 154 947 147 957 b 113 931 119 957 113 949 l 113 847 l 18 847 l 18 933 b 124 1042 18 999 42 1042 l 144 1042 b 260 936 233 1042 260 999 l 260 907 b 182 744 260 839 239 804 b 106 646 107 665 106 665 l 183 646 l 183 724 l 274 724 l 274 563 m 557 1033 l 207 0 l 104 0 l 456 1033 m 378 311 l 378 363 b 486 479 378 439 403 479 l 503 479 b 611 368 581 479 611 446 l 611 329 b 576 257 611 285 593 267 b 619 189 599 246 619 229 l 619 100 b 507 -10 619 35 586 -10 l 488 -10 b 376 94 399 -10 376 39 l 376 169 l 474 169 l 474 101 b 494 74 474 83 481 74 b 513 101 510 74 513 83 l 513 169 b 490 197 513 190 508 197 l 444 197 l 444 286 l 488 286 b 513 314 506 286 513 292 l 513 367 b 492 397 513 389 508 397 b 471 367 475 397 471 389 l 471 311 "},"⅛":{"ha":550,"x_min":0,"x_max":0,"o":"m 10 899 l 10 976 b 88 1033 72 976 81 1006 l 171 1033 l 171 563 l 71 563 l 71 899 m 465 1033 l 115 0 l 13 0 l 364 1033 m 528 333 b 492 249 528 278 507 260 b 535 161 515 238 535 215 l 535 103 b 415 -10 535 38 500 -10 l 404 -10 b 285 106 315 -10 285 38 l 285 161 b 328 249 285 203 299 232 b 288 333 307 264 288 285 l 288 375 b 401 479 288 444 325 479 l 414 479 b 528 375 490 479 528 444 m 432 175 b 410 203 432 193 425 203 b 389 175 396 203 389 193 l 389 103 b 410 78 389 86 396 78 b 432 103 425 78 432 86 m 428 371 b 408 396 428 388 421 396 b 389 371 396 396 389 388 l 389 313 b 408 288 389 296 396 288 b 428 313 421 288 428 296 "},"⅜":{"ha":613,"x_min":0,"x_max":0,"o":"m 529 1033 l 179 0 l 76 0 l 428 1033 m 18 874 l 18 925 b 126 1042 18 1001 43 1042 l 143 1042 b 251 931 221 1042 251 1008 l 251 892 b 217 819 251 847 233 829 b 260 751 239 808 260 792 l 260 663 b 147 553 260 597 226 553 l 128 553 b 17 657 39 553 17 601 l 17 732 l 114 732 l 114 664 b 135 636 114 646 121 636 b 153 664 150 636 153 646 l 153 732 b 131 760 153 753 149 760 l 85 760 l 85 849 l 128 849 b 153 876 146 849 153 854 l 153 929 b 132 960 153 951 149 960 b 111 929 115 960 111 951 l 111 874 m 590 333 b 554 249 590 278 569 260 b 597 161 578 238 597 215 l 597 103 b 478 -10 597 38 563 -10 l 467 -10 b 347 106 378 -10 347 38 l 347 161 b 390 249 347 203 361 232 b 350 333 369 264 350 285 l 350 375 b 464 479 350 444 388 479 l 476 479 b 590 375 553 479 590 444 m 494 175 b 472 203 494 193 488 203 b 451 175 458 203 451 193 l 451 103 b 472 78 451 86 458 78 b 494 103 488 78 494 86 m 490 371 b 471 396 490 388 483 396 b 451 371 458 396 451 388 l 451 313 b 471 288 451 296 458 288 b 490 313 483 288 490 296 "},"⅝":{"ha":611,"x_min":0,"x_max":0,"o":"m 528 1033 l 178 0 l 75 0 l 426 1033 m 22 757 l 22 1033 l 250 1033 l 250 944 l 118 944 l 118 851 b 194 903 131 872 154 903 b 263 825 243 901 263 868 l 263 679 b 150 553 263 594 225 553 l 129 553 b 18 663 44 553 18 596 l 18 718 l 121 718 l 121 660 b 139 636 121 644 126 636 b 157 660 151 636 157 644 l 157 785 b 139 810 157 801 151 810 b 118 785 125 810 118 801 l 118 757 m 589 333 b 553 249 589 278 568 260 b 596 161 576 238 596 215 l 596 103 b 476 -10 596 38 561 -10 l 465 -10 b 346 106 376 -10 346 38 l 346 161 b 389 249 346 203 360 232 b 349 333 368 264 349 285 l 349 375 b 463 479 349 444 386 479 l 475 479 b 589 375 551 479 589 444 m 493 175 b 471 203 493 193 486 203 b 450 175 457 203 450 193 l 450 103 b 471 78 450 86 457 78 b 493 103 486 78 493 86 m 489 371 b 469 396 489 388 482 396 b 450 371 457 396 450 388 l 450 313 b 469 288 450 296 457 288 b 489 313 482 288 489 296 "},"⅞":{"ha":563,"x_min":0,"x_max":0,"o":"m 244 1033 l 244 992 b 206 783 244 951 226 889 b 188 563 188 703 188 647 l 68 563 b 106 768 69 633 79 686 b 157 954 139 868 157 922 l 106 954 l 106 869 l 15 869 l 15 1033 m 481 1033 l 131 0 l 28 0 l 379 1033 m 540 333 b 504 249 540 278 519 260 b 547 161 528 238 547 215 l 547 103 b 428 -10 547 38 513 -10 l 417 -10 b 297 106 328 -10 297 38 l 297 161 b 340 249 297 203 311 232 b 300 333 319 264 300 285 l 300 375 b 414 479 300 444 338 479 l 426 479 b 540 375 503 479 540 444 m 444 175 b 422 203 444 193 438 203 b 401 175 408 203 401 193 l 401 103 b 422 78 401 86 408 78 b 444 103 438 78 444 86 m 440 371 b 421 396 440 388 433 396 b 401 371 408 396 401 388 l 401 313 b 421 288 401 296 408 288 b 440 313 433 288 440 296 "},"−":{"ha":440,"x_min":0,"x_max":0,"o":"m 418 479 l 418 361 l 22 361 l 22 479 "},"":{"ha":410,"x_min":0,"x_max":0,"o":"m 388 1033 l 388 882 l 189 882 l 189 611 l 376 611 l 376 456 l 189 456 l 189 157 l 394 157 l 394 0 l 32 0 l 32 1033 "},"":{"ha":397,"x_min":0,"x_max":0,"o":"m 382 1033 l 382 882 l 188 882 l 188 611 l 372 611 l 372 457 l 188 457 l 188 0 l 32 0 l 32 1033 "},"":{"ha":306,"x_min":0,"x_max":0,"o":"m 14 160 l 89 160 b 113 192 110 160 113 174 l 113 1033 l 275 1033 l 275 99 b 183 0 275 25 240 0 l 14 0 "},"":{"ha":411,"x_min":0,"x_max":0,"o":"m 242 85 b 121 -4 222 50 186 -4 l 117 -4 b 21 113 56 -4 21 53 l 21 288 b 92 438 21 361 38 404 b 221 504 125 460 200 493 b 239 536 236 514 239 515 l 239 583 b 203 632 239 621 229 632 l 200 632 b 163 585 171 632 163 618 l 163 506 l 29 506 l 29 611 b 186 753 29 667 46 753 l 214 753 b 382 606 357 753 382 683 l 382 147 b 397 7 382 51 390 21 l 397 0 l 253 0 b 242 85 249 10 242 39 m 239 378 b 186 340 222 368 201 356 b 167 281 171 325 167 310 l 167 178 b 201 129 167 146 178 129 b 239 185 226 129 239 147 "},"":{"ha":346,"x_min":0,"x_max":0,"o":"m 174 649 b 289 753 203 718 240 753 l 294 753 b 332 747 310 753 328 749 l 332 578 b 263 590 317 583 294 590 l 257 590 b 176 524 196 590 176 572 l 176 0 l 28 0 l 28 747 l 174 747 "},"ﬀ":{"ha":631,"x_min":0,"x_max":0,"o":"m 618 896 l 551 896 b 521 860 525 896 521 886 l 521 747 l 618 747 l 618 606 l 521 606 l 521 0 l 372 0 l 372 606 l 246 606 l 246 0 l 97 0 l 97 606 l 8 606 l 8 747 l 97 747 l 97 938 b 203 1033 97 978 119 1033 l 342 1033 l 342 896 l 276 896 b 246 860 250 896 246 886 l 246 747 l 372 747 l 372 938 b 478 1033 372 978 394 1033 l 618 1033 "}}}
